<?xml version="1.0" standalone="no"?>
<!DOCTYPE svg PUBLIC "-//W3C//DTD SVG 1.1//EN" "http://www.w3.org/Graphics/SVG/1.1/DTD/svg11.dtd" >
<!--
2013-9-30: Created.
-->
<svg>
<metadata>
Created by iconfont
</metadata>
<defs>

<font id="iconfont" horiz-adv-x="1024" >
  <font-face
    font-family="iconfont"
    font-weight="500"
    font-stretch="normal"
    units-per-em="1024"
    ascent="896"
    descent="-128"
  />
    <missing-glyph />
    
    <glyph glyph-name="22" unicode="&#58902;" d="M512 635.25 65 635.25l0-670.5 4.118 0 52.688 0L512-35.25l390.194 0 52.688 0L959-35.25l0 670.5L512 635.25zM883.395 605.45 512 258.808 140.606 605.45 883.395 605.45zM883.395-5.449 140.606-5.449l283.595 264.693-21.841 20.371L96.925-5.449 94.8-5.449 94.8 605.45l2.125 0L512 218.051 927.076 605.45l2.124 0 0-610.899-2.124 0L621.641 279.615 599.8 259.244 883.395-5.449z"  horiz-adv-x="1024" />

    
    <glyph glyph-name="sousuo" unicode="&#58927;" d="M727.934492 201.316308c60.046584 67.008136 96.571453 155.563008 96.571453 252.643044 0 209.079876-169.492252 378.595664-378.595664 378.595664-209.102389 0-378.598734-169.515788-378.598734-378.595664 0-209.128995 169.495322-378.64376 378.598734-378.64376 95.078449 0 181.976588 35.056424 248.504794 92.963275l230.230592-230.251058 33.287127 33.286104L727.934492 201.316308zM445.911304 122.142084c-182.943612 0-331.772242 148.872632-331.772242 331.817268 0 182.89654 148.827607 331.814198 331.772242 331.814198 182.941566 0 331.769173-148.917658 331.769173-331.814198C777.680477 271.015739 628.85287 122.142084 445.911304 122.142084z"  horiz-adv-x="1024" />

    
    <glyph glyph-name="guanbi" unicode="&#58931;" d="M555.008 384l299.008 299.008c12.288 12.288 12.288 31.744 0 43.008-12.288 12.288-31.744 12.288-43.008 0L512 427.008 212.992 726.016c-12.288 12.288-31.744 12.288-43.008 0-12.288-12.288-12.288-31.744 0-43.008L468.992 384 169.984 84.992c-12.288-12.288-12.288-31.744 0-43.008 6.144-6.144 14.336-9.216 21.504-9.216s15.36 3.072 21.504 9.216L512 340.992l299.008-299.008c6.144-6.144 14.336-9.216 21.504-9.216s15.36 3.072 21.504 9.216c12.288 12.288 12.288 31.744 0 43.008L555.008 384z"  horiz-adv-x="1024" />

    
    <glyph glyph-name="icon" unicode="&#58889;" d="M896.664382 513.517819 896.664382 2.402979 127.833969 2.402979 127.833969 768.037607 639.487068 768.16552 639.487068 832.122157 64.133158 832.122157 64.133158-62.063265 958.059684-62.063265 958.059684 513.517819ZM210.070948 86.442l204.637704 22.527063 542.826076 542.705326L776.637728 832.577528 233.901703 289.893692 210.070948 86.442zM269.177114 144.152377l10.190083 100.69947 0.013303 0.013303 90.443895-90.443895-0.239454-0.239454L269.177114 144.152377zM320.621786 286.108482l375.74371 375.766223 90.460268-90.459245-375.758036-375.75292L320.621786 286.108482zM867.100042 651.688715l-39.032992-39.031968-90.461291 90.461291 39.031968 39.034015L867.100042 651.688715z"  horiz-adv-x="1024" />

    
    <glyph glyph-name="tingyong" unicode="&#58995;" d="M512-127.218917C229.661486-127.218917 0.781083 101.661486 0.781083 384 0.781083 666.338514 229.661486 895.218917 512 895.218917 794.338514 895.218917 1023.218917 666.338514 1023.218917 384 1023.218917 101.661486 794.338514-127.218917 512-127.218917ZM511.804729 833.122807C264.084601 833.122807 63.267735 632.130978 63.267735 384.195271 63.267735 273.463847 103.326755 172.098783 169.727024 93.817849L801.047628 727.322362C722.956107 793.332479 622.023371 833.122807 511.804729 833.122807ZM845.861492 683.768775 213.353641 49.073111C292.639829-21.710206 397.201086-64.732265 511.804729-64.732265 759.524857-64.732265 960.341724 136.259564 960.341724 384.195271 960.341724 499.3156 917.041989 604.309968 845.861492 683.768775Z"  horiz-adv-x="1024" />

    
    <glyph glyph-name="xiugaimima01" unicode="&#58886;" d="M1012.058 48.587l-50.997-9.592c-3.165-10.583-7.322-20.75-12.469-30.278l29.255-42.908c2.718-3.997 2.174-10.040-1.247-13.493l-36.417-36.577c-3.421-3.453-9.432-3.997-13.429-1.247l-42.972 29.511c-9.496-5.116-19.599-9.208-30.151-12.342l-9.528-51.029c-0.895-4.764-5.531-8.633-10.391-8.633h-51.509c-4.86 0-9.496 3.869-10.391 8.633l-9.624 51.509c-10.103 3.101-19.791 7.162-28.936 12.118l-42.428-29.159c-3.997-2.75-10.008-2.174-13.429 1.247l-36.417 36.577c-3.421 3.421-3.997 9.464-1.247 13.493l29.032 42.62c-5.052 9.432-9.176 19.472-12.278 29.927l-51.029 9.592c-4.764 0.895-8.601 5.563-8.601 10.423l-0 51.764c0 4.86 3.869 9.528 8.601 10.423l51.061 9.592c3.069 10.231 7.066 20.047 12.022 29.319l-29.383 43.1c-2.718 3.997-2.174 10.040 1.247 13.493l36.449 36.577c3.421 3.453 9.432 3.997 13.429 1.247l42.652-29.287c9.208 5.020 19.024 9.112 29.223 12.246l9.624 51.509c0.895 4.764 5.531 8.665 10.391 8.665h51.509c4.86 0 9.496-3.869 10.391-8.665l9.528-50.997c10.647-3.133 20.846-7.322 30.438-12.501l43.196 29.671c3.997 2.718 10.008 2.174 13.429-1.247l36.417-36.577c3.421-3.421 3.997-9.464 1.247-13.493l-29.543-43.355c5.020-9.368 9.112-19.312 12.214-29.671l51.061-9.624c4.764-0.895 8.633-5.563 8.633-10.423v-51.732c-0.032-4.86-3.869-9.528-8.633-10.423zM808.71 163.082c-43.036 0-77.95-35.042-77.95-78.27 0-43.26 34.915-78.27 77.95-78.27 43.068 0 77.982 35.042 77.982 78.27 0 43.228-34.915 78.27-77.982 78.27zM827.414 391.082c2.686 18.448 4.54 37.153 4.54 56.336 0 213.196-172.079 386.010-384.348 386.010s-384.348-172.814-384.348-386.010 172.079-386.010 384.348-386.010c19.088 0 37.728 1.854 56.081 4.572 1.311-21.454 4.732-42.268 10.199-62.315-21.678-3.229-43.675-5.467-66.248-5.467-246.992 0-447.207 200.982-447.207 448.901s200.215 448.901 447.175 448.901 447.175-200.982 447.175-448.901c0-22.541-2.206-44.538-5.403-66.216-19.919 5.467-40.638 8.92-61.964 10.199zM256.024 299.224v172.143c0 40.734 30.278 73.794 67.655 73.794h248.015c37.344 0 67.655-33.028 67.655-73.794v-130.738c-43.196-28.904-78.526-68.582-102.474-115.167l-213.196 0c-37.376 0-67.655 33.028-67.655 73.762zM419.726 369.244v-79.453h54.77v79.453c19.024 10.615 36.577 27.88 36.577 50.453 0 33.795-28.648 61.196-63.946 61.196s-63.946-27.369-63.946-61.196c-0.032-22.573 17.521-39.838 36.545-50.453zM447.606 672.86c-60.109 0-63.786-50.549-63.946-63.946v-63.754h-64.362v57.551c0 0 0.032 134.287 128.052 134.287 128.052 0 128.052-134.287 128.052-134.287v-57.583h-63.882l-0 63.786c-0.128 13.173-3.805 63.946-63.914 63.946z"  horiz-adv-x="1024" />

    
    <glyph glyph-name="fanhui" unicode="&#58891;" d="M189.76 174.336c136.128 340.672 463.488 279.552 463.488 279.552l0-186.304L1024 547.008l-370.752 279.552 0-139.776C143.424 579.072 189.76 174.336 189.76 174.336M748.8 21.056 79.68 21.056 79.68 546.816l184.448 0 0.448 0C292.352 578.688 325.824 610.56 366.08 642.432L365.696 642.432 0 642.432l0-700.992 828.48 0L828.48 327.424 828.48 327.488 748.8 262.912 748.8 21.056z"  horiz-adv-x="1024" />

    
    <glyph glyph-name="tongzhi" unicode="&#58925;" d="M856.798419 102.887554l-73.742515 129.741923L783.055904 494.156866c0 100.20112-75.31636 208.644971-185.111998 248.378927-5.348821 53.104475-40.835034 91.831498-87.334068 91.831498-46.434565 0-82.048691-38.728046-87.332021-91.831498-109.73424-39.733956-185.049576-148.176784-185.049576-248.378927l0-261.527388-77.329203-136.096654c-5.158487-8.997931-5.03262-20.008706 0.125867-28.944216 5.15951-8.933463 14.724353-14.346753 25.042349-14.346753l184.04162 0c13.528108-65.310472 71.353095-114.51308 140.501988-114.51308 69.213361 0 127.036301 49.202609 140.500964 114.51308l184.04162 0c0.505513 0 0.881067 0 1.322112 0 16.045441 0 29.007661 12.898775 29.007661 28.944216C865.482195 90.302935 862.209662 97.664599 856.798419 102.887554M510.609839 776.291594c10.444886 0 18.875906-7.927553 24.287149-19.756973-8.05342 0.818645-15.85613 2.705622-24.287149 2.705622s-16.232706-1.886977-24.287149-2.705622C491.734956 768.365064 500.165975 776.291594 510.609839 776.291594M510.609839-3.258974c-36.808324 0-67.576071 23.657816-79.532381 56.500828l159.062715 0C578.186933 20.399865 547.482631-3.258974 510.609839-3.258974M235.90022 111.192707l56.502875 99.476619c2.515287 4.28049 3.89982 9.314133 3.89982 14.34573L296.302915 494.156866c0 97.747231 91.611487 207.070102 214.306924 207.070102 122.694413 0 214.431767-109.322871 214.431767-207.070102L725.041606 225.015056c0-5.031597 1.322112-10.06524 3.774977-14.34573l56.565297-99.476619L235.90022 111.192707z"  horiz-adv-x="1024" />

    
    <glyph glyph-name="xinlangweibo" unicode="&#58990;" d="M893.506 457.807c-40.954 8.13-21.079 30.112-21.079 30.112s40.049 66.248-8.13 114.427c-59.622 59.623-204.463-7.528-204.463-7.528-55.406-17.164-40.651 7.829-32.822 50.288 0 50.288-17.164 135.204-164.715 84.917-147.25-50.288-274.023-227.048-274.023-227.048-87.928-117.439-76.184-208.076-76.184-208.076 21.982-200.247 234.877-255.353 400.495-268.302 174.050-13.852 409.227 59.924 480.293 211.389 71.366 151.766-58.117 211.69-99.372 219.82v0zM525.231 82.908c-172.845-7.829-312.566 78.895-312.566 194.225 0 115.331 139.721 208.076 312.566 215.906 173.146 8.13 313.169-63.235 313.169-178.567 0-115.331-140.023-223.735-313.169-231.564v0zM490.902 417.156c-174.050-20.477-153.875-183.384-153.875-183.384s-1.808-51.492 46.674-77.69c101.78-55.105 206.572-21.982 259.569 46.373 52.697 68.355 21.681 234.877-152.369 214.702v0zM446.939 188.301c-32.521-3.613-58.718 15.056-58.718 42.157s23.487 55.406 56.009 58.718c37.039 3.613 61.429-17.767 61.429-45.169 0-26.799-26.499-51.793-58.718-55.708zM549.32 275.629c-10.84-8.13-24.391-6.925-30.112 3.012-6.023 9.637-3.915 24.994 7.227 33.125 12.948 9.637 26.197 6.624 32.22-3.012 5.722-9.637 1.506-24.392-9.335-33.125zM978.122 528.572c14.153 0 26.197 10.237 28.005 23.789 0.301 0.904 0.301 1.807 0.301 3.012 21.38 190.912-156.284 158.091-156.284 158.091-15.959 0-28.607-12.648-28.607-28.607 0-15.659 12.648-28.607 28.607-28.607 127.375 28.306 99.372-99.372 99.372-99.372 0-15.659 12.948-28.306 28.607-28.306zM957.345 861.616c-61.43 14.454-124.364 2.108-142.131-1.205-1.506 0-2.709-1.506-3.915-1.808-0.602 0-0.904-0.602-0.904-0.602-17.767-5.12-30.413-21.079-30.413-40.351 0-22.584 18.369-41.556 41.556-41.556 0 0 22.283 3.312 37.641 9.035 14.755 6.323 142.131 4.517 205.367-101.48 34.629-77.69 15.056-129.483 12.648-137.614 0 0-8.13-20.175-8.13-40.049 0-22.885 18.369-37.34 41.254-37.34 19.272 0 35.232 2.709 40.049 34.93h0.301c67.753 226.145-83.11 332.441-193.322 358.037v0z"  horiz-adv-x="1282" />

    
    <glyph glyph-name="buoumaotubiao20" unicode="&#58898;" d="M512.023273 849.454545c256.651636 0 465.454545-208.802909 465.454545-465.454545s-208.802909-465.454545-465.454545-465.454545-465.454545 208.802909-465.454545 465.454545S255.371636 849.454545 512.023273 849.454545M512.023273 896c-282.763636 0-512-229.236364-512-512s229.236364-512 512-512 512 229.236364 512 512S794.810182 896 512.023273 896L512.023273 896zM725.76 146.967273c-5.957818 0-11.915636 2.280727-16.453818 6.818909l-427.450182 427.52c-9.099636 9.099636-9.099636 23.831273 0 32.907636 9.099636 9.099636 23.808 9.099636 32.907636 0l427.450182-427.52c9.099636-9.099636 9.099636-23.831273 0-32.907636C737.675636 149.248 731.717818 146.967273 725.76 146.967273zM298.263273 146.990545c-5.957818 0-11.915636 2.280727-16.453818 6.818909-9.099636 9.099636-9.099636 23.831273 0 32.907636L709.352727 614.190545c9.099636 9.099636 23.808 9.099636 32.907636 0s9.099636-23.831273 0-32.907636L314.717091 153.809455C310.178909 149.271273 304.221091 146.990545 298.263273 146.990545z"  horiz-adv-x="1026" />

    
    <glyph glyph-name="weixin" unicode="&#58959;" d="M499.057025 548.04468c27.691946 0 45.751911 18.661964 45.751911 45.751911 0 27.089947-18.661964 45.751911-45.751911 45.751911-26.487948 0-54.781893-17.457966-54.781893-45.751911C444.275132 566.104644 472.569077 548.04468 499.057025 548.04468zM299.795414 594.398589c0 27.089947-18.661964 45.751911-45.751911 45.751911-26.487948 0-54.781893-17.457966-54.781893-45.751911 0-28.293945 28.293945-45.751911 54.781893-45.751911C281.73545 548.04468 299.795414 566.706643 299.795414 594.398589zM1024 270.523222c0 67.423868-30.099941 132.439741-84.279835 183.007643-53.577895 49.965902-125.215755 80.667842-201.067607 87.28983 0 1.203998 0 2.407995 0 3.611993-31.905938 148.091711-190.833627 260.063492-370.229277 260.063492C164.947678 804.496179 0 663.026455 0 489.048795 0 396.340976 46.955908 312.061141 136.653733 246.443269l-30.70194-92.707819c-2.407995-7.223986 0-14.447972 5.417989-19.263962 5.417989-4.815991 13.845973-5.417989 19.865961-2.407995l116.787772 58.393886 13.845973-3.009994 0.601999 0c36.119929-7.223986 67.423868-13.845973 105.951793-13.845973 7.223986 0 34.915932 2.407995 43.945914 6.621987 44.547913-108.359788 163.74368-181.201646 297.387419-181.201646 33.711934 0 68.025867 7.825985 102.3398 16.253968l89.697825-48.761905c2.407995-1.203998 5.417989-2.407995 8.427984-2.407995 4.213992 0 8.427984 1.203998 11.437978 4.213992 6.019988 4.815991 7.825985 12.039976 6.019988 19.263962l-22.875955 75.249853C981.258083 123.635509 1024 197.681364 1024 270.523222zM864.470312 92.33157c-6.019988-4.213992-8.427984-12.039976-6.019988-18.661964l12.641975-42.741917-54.179894 29.497942c-2.407995 1.203998-5.417989 2.407995-8.427984 2.407995-1.203998 0-3.009994 0-4.213992-0.601999-31.303939-7.825985-63.811875-16.253968-95.717813-16.253968-146.285714 0-265.481481 100.533804-265.481481 223.943563 0 123.409759 119.195767 223.943563 265.481481 223.943563 143.877719 0 264.879483-102.3398 264.879483-223.943563C974.034098 208.517343 935.506173 145.307466 864.470312 92.33157zM181.803645 255.473251c2.407995 7.223986 0 15.049971-6.621987 19.865961C90.901822 334.335097 48.159906 405.972957 48.159906 488.446796 48.159906 637.140506 191.435626 758.142269 367.821282 758.142269c154.111699 0 291.96943-93.911817 322.069371-218.525573-164.345679-3.611993-297.387419-120.399765-297.387419-261.869489 0-18.661964 2.407995-37.925926 7.825985-57.189888-0.601999 0-1.805996 0-2.407995 0-9.631981-0.601999-19.865961-1.203998-30.099941-1.203998-34.313933 0-63.811875 6.019988-95.717813 12.641975l-19.263962 3.611993c-3.611993 0.601999-7.825985 0-11.437978-1.203998l-80.065844-40.333921L181.803645 255.473251zM612.834803 386.106996c-18.661964 0-37.323927-18.661964-37.323927-37.323927 0-18.661964 18.661964-37.323927 37.323927-37.323927 28.293945 0 45.751911 19.263962 45.751911 37.323927C658.586714 366.843034 641.128748 386.106996 612.834803 386.106996zM804.872428 386.106996c-18.661964 0-36.721928-18.661964-36.721928-37.323927 0-18.661964 18.059965-37.323927 36.721928-37.323927 28.293945 0 45.751911 19.263962 45.751911 37.323927C850.624339 366.843034 833.166373 386.106996 804.872428 386.106996z"  horiz-adv-x="1024" />

    
    <glyph glyph-name="shouquanbohui" unicode="&#58926;" d="M553.097356 761.652374l294.107236 0 0-63.99644L553.097356 697.655934 553.097356 761.652374zM655.352266 634.871445l193.222271 0 0-63.99744-193.222271 0L655.352266 634.871445zM729.589296 497.682933l112.696492 0 0-63.99744L729.589296 433.685493 729.589296 497.682933zM187.291988 232.968521l193.222271 0 0-63.99744-193.222271 0L187.291988 232.968521zM189.851886 95.780009l112.696492 0 0-63.99744L189.851886 31.782569 189.851886 95.780009zM898.681533 896 130.716251 896C95.372665 896 66.719811 867.347146 66.719811 832.00256l0-895.958162c0-35.343586 28.652854-63.99644 63.99644-63.99644l299.389024 0.327987 0 63.99644-299.389024-0.327987L130.716251 832.00256l767.966281 0 0-422.380105 63.99644 0L962.678973 832.00256C962.676973 867.347146 934.020119 896 898.681533 896L898.681533 896zM363.186953 794.859046c-46.422143 0-84.404624-37.981481-84.404624-84.404624 0-29.541818 16.880325-59.083637 42.202312-71.74413 12.660494-8.440662 25.320987-12.660494 42.202312-12.660494 16.880325 0 29.541818 4.219831 42.202312 12.660494 25.320987 12.660494 42.202312 42.202312 42.202312 71.74413C447.591576 756.877565 409.609096 794.859046 363.186953 794.859046zM384.288108 672.472941c-8.440662-4.219831-12.660494-8.440662-25.320987-8.440662-8.440662 0-16.880325 4.220831-25.320987 8.440662-12.660494 8.440662-16.881325 21.101156-16.881325 33.76165 0 21.101156 21.101156 42.202312 42.202312 42.202312 25.320987 0 42.202312-21.101156 42.202312-42.202312C405.389264 693.574097 396.948602 680.913603 384.288108 672.472941zM401.169433 647.152954l-16.881325 25.320987c-8.440662-4.219831-12.660494-8.440662-25.320987-8.440662-8.440662 0-16.880325 4.220831-25.320987 8.440662l-12.660494-25.320987L219.700692 465.684213l291.193352 0L401.169433 647.152954zM363.186953 626.051798l84.403624-156.147754L283.00316 469.904044 363.186953 626.051798zM510.895044 469.904044 215.479861 469.904044c-25.320987 0-42.202312-16.881325-42.202312-42.202312l0-42.202312c0-25.320987 16.881325-42.202312 42.202312-42.202312l295.414183 0c25.321987 0 42.202312 16.881325 42.202312 42.202312l0 42.202312C553.096356 448.802888 531.9962 469.904044 510.895044 469.904044zM510.895044 385.49942 215.479861 385.49942l0 42.202312 295.414183 0L510.895044 385.49942 510.895044 385.49942zM687.056038 191.265309l0 74.917963c0 3.25619 0 13.029879-6.51238 22.803568-6.51238 9.773689-19.542258 9.773689-35.833447 3.25619l-3.25619 0L498.125355 135.889604c-3.25619-3.25619-16.286069-19.542258-16.286069-35.833447 0-19.542258 16.286069-35.833447 19.542258-35.833447l143.323547-162.870925c3.25619-3.25619 13.029879-13.029879 22.803568-13.029879s16.286069 6.51238 19.542258 13.029879c3.25619 6.51238 3.25619 13.029879 3.25619 22.803568l0 94.465341c42.345826 0 159.609616-6.51238 231.276509-133.554978 4.9918-11.022919 13.029879-13.029879 19.542258-13.029879l6.51238 0 4.874045 1.433543c9.773689 3.25619 11.412024 14.852526 11.412024 18.108716C960.673253-59.553458 941.130995 178.235431 687.056038 191.265309zM700.085917 51.197952c-16.286069 0-26.059758 0-26.059758 0l-16.286069-3.25619 0-110.75141-130.293668 149.841046c-3.25619 3.25619-9.773689 9.773689-9.773689 13.029879 0 3.25619 3.25619 9.773689 6.51238 13.029879l127.037479 136.811168 0-94.465341 16.286069 0c182.413183 0 237.788888-123.781289 254.074957-208.472941C846.665653 41.424263 745.687932 51.197952 700.085917 51.197952z"  horiz-adv-x="1024" />

    
    <glyph glyph-name="shenhebohui" unicode="&#58928;" d="M656.203348 761.649941l190.99454 0 0-63.99516L656.203348 697.654781 656.203348 761.649941zM707.399276 634.871548l141.16853 0 0-63.99616L707.399276 570.875387 707.399276 634.871548zM755.183409 497.685779l87.095774 0 0-63.99616-87.095774 0L755.183409 497.685779zM187.298482 232.976661l193.218407 0 0-63.99616-193.218407 0L187.298482 232.976661zM189.858329 95.790893l112.694238 0 0-63.99616L189.858329 31.794732 189.858329 95.790893zM898.6738 895.99488 130.723877 895.99488C95.380997 895.99488 66.728716 867.342599 66.728716 831.99872l0-895.940244c0-35.342879 28.652281-63.99516 63.99516-63.99516l299.383037 0.32798 0 63.99516-299.383037-0.32798L130.723877 831.99872l767.950923 0 0-501.728896 63.99516 0L962.66996 831.99872C962.66796 867.342599 934.011679 895.99488 898.6738 895.99488L898.6738 895.99488zM687.052537 191.274284l0 74.916465c0 3.256125 0 13.029618-6.512249 22.803112-6.512249 9.773494-19.541867 9.773494-35.83273 3.256125l-3.256125 0L498.125632 135.899686c-3.256125-3.256125-16.285743-19.541867-16.285743-35.83273 0-19.541867 16.285743-35.83273 19.541867-35.83273l143.320681-162.867668c3.256125-3.256125 13.029618-13.029618 22.803112-13.029618s16.285743 6.512249 19.541867 13.029618c3.256125 6.512249 3.256125 13.029618 3.256125 22.803112l0 94.463452c42.344979 0 159.606424-6.512249 231.271884-133.552307 4.9917-11.022699 13.029618-13.029618 19.541867-13.029618l6.512249 0 4.873948 1.433514c9.773494 3.256125 11.411795 14.852229 11.411795 18.108353C960.66428-59.539468 941.122413 178.244665 687.052537 191.274284zM700.082155 51.209727c-16.285743 0-26.059236 0-26.059236 0l-16.285743-3.256125 0-110.749195-130.291063 149.83805c-3.256125 3.256125-9.773494 9.773494-9.773494 13.029618 0 3.256125 3.256125 9.773494 6.512249 13.029618l127.034938 136.808431 0-94.463452 16.285743 0c182.409535 0 237.784133-123.778813 254.069876-208.468772C846.65896 41.436234 745.683259 51.209727 700.082155 51.209727zM402.904546 783.783613c-128.761274 0-233.151011-104.399736-233.151011-233.16201 0-128.751275 104.389737-233.151011 233.151011-233.151011s233.151011 104.399736 233.151011 233.151011C636.056557 679.383877 531.66582 783.783613 402.904546 783.783613zM402.904546 375.764094c-96.410215 0-174.868508 78.437294-174.868508 174.857509 0 96.410215 78.458293 174.868508 174.868508 174.868508 96.432214 0 174.869508-78.459292 174.869508-174.868508C577.774054 454.201388 499.33676 375.764094 402.904546 375.764094zM432.050797 562.691878 432.050797 667.208607c0 16.107034-13.038218 29.136252-29.146251 29.136252-16.107034 0-29.146251-13.029218-29.146251-29.136252l0-116.680999c0.020999-8.021519 3.278803-15.284083 8.570486-20.533768l58.249505-58.272504c5.692658-5.691659 13.156211-8.527488 20.619763-8.527488 7.452553 0 14.916105 2.83683 20.607764 8.527488 11.374318 11.384317 11.374318 29.843209 0 41.226526L432.050797 562.691878z"  horiz-adv-x="1024" />

    
    <glyph glyph-name="update" unicode="&#58933;" d="M959.667298 95.348857l-33.843806 157.556409c-0.064468 0.224104 0 0.388856-0.029676 0.587378l-2.611477 10.637268c-1.434675 5.9055-5.15644 10.539031-9.918907 13.248745-4.767584 2.804882-10.638291 3.686972-16.416901 1.956561l-10.538007-3.067872c-0.164752-0.029676-0.328481-0.163729-0.557702-0.25992L729.110271 226.273722c-11.618619-3.362584-18.664082-15.634072-15.829524-27.412326l2.64627-8.879228c2.838651-11.743462 17.358343-15.370059 28.976962-12.006452l100.167351 32.18912c-2.316765-4.496407-4.728698-8.943696-7.227612-13.325493-50.845015-89.318258-137.646963-153.181775-238.125399-175.209464-94.868671-20.790512-225.597061-3.428076-307.410392 48.981574-81.779561 52.344159-137.517003 136.410809-158.308539 231.274364-3.551896 16.152888-19.510356 26.4013-35.668361 22.844288-16.152888-3.527336-26.400277-19.515473-22.809495-35.669384 24.178679-110.532419 89.252767-207.876468 184.510294-268.90031 95.257527-60.993143 242.041592-81.256652 352.540242-57.046251 116.955712 25.683962 218.022549 100.089579 277.32212 204.126051 0.652869 1.154289 1.288343 2.320858 1.932002 3.479241l18.071587-85.813434c2.870374-11.782348 14.618952-18.568914 26.237571-15.140839l8.384971 0.876973C956.17373 74.072275 962.502879 83.630978 959.667298 95.348857L959.667298 95.348857zM96.961844 500.037806l2.610454-10.654664c1.439792-5.90857 5.15644-10.525728 9.924024-13.252839 4.76349-2.787486 10.637268-3.669576 16.412808-1.957585l10.507308 3.086291c0.199545 0.029676 0.358157 0.177032 0.557702 0.2415l156.64055 49.751101c11.618619 3.393283 18.697851 15.634072 15.859199 27.41335l-2.871397 7.978718c-2.870374 11.747555-17.134239 16.300244-28.717042 12.906961l-100.582813-32.301683c5.130857 11.68411 10.870582 23.094998 17.173125 34.111912 50.90539 89.366354 136.895857 150.277632 237.309824 172.304298 94.863555 20.790512 225.595015 3.41068 307.374576-48.997947 81.814354-52.361555 138.299833-133.48927 159.121044-228.386594 3.558036-16.153912 19.48068-26.350135 35.668361-22.810518 11.294231 2.482541 19.709901 11.048637 22.485107 21.50478 1.206478 4.473895 1.404999 9.30083 0.323365 14.164604-24.213471 110.51093-90.030479 204.973348-185.288007 265.961374-95.291297 61.011562-242.045685 81.261769-352.543312 57.029878-116.891244-25.618471-217.210044-97.05036-276.470729-201.085808-4.179183-7.325849-8.151657-14.809287-11.908214-22.416546l-17.690918 84.010369c-2.905166 11.765975-13.900591 21.262256-25.51921 17.868973l-8.385994-0.916882c-11.618619-3.429099-18.697851-15.69547-15.859199-27.412326l33.805944-157.552316C96.996636 500.41336 96.896352 500.232235 96.961844 500.037806L96.961844 500.037806zM96.961844 500.037806"  horiz-adv-x="1024" />

    
    <glyph glyph-name="liuchengmoxing" unicode="&#59345;" d="M613.68389 561.462784l149.575644 0 0-299.500235 49.858548 0L813.118082 561.462784l0 49.918923L613.68389 611.381707 613.68389 832.360588 65.240887 832.360588l0-470.566332 548.44198 0L613.682867 561.462784zM563.825342 411.708062 115.099435 411.708062 115.099435 782.447804 563.825342 782.447804 563.825342 411.708062zM613.68389 261.959479l0-149.751652L464.108247 112.207827 464.108247 261.959479 65.240887 261.959479l0-324.465836 398.86736 0L464.108247 62.290951l149.575644 0 0-124.798331 349.008812 0L962.692702 261.959479 613.68389 261.959479zM414.249699 112.207827l0-49.915853 0-74.879408L115.099435-12.587434 115.099435 212.040557l299.150264 0L414.249699 112.207827zM912.834154-12.587434 663.542438-12.587434 663.542438 212.040557 912.834154 212.040557 912.834154-12.587434z"  horiz-adv-x="1024" />

    
    <glyph glyph-name="tengxunweibo" unicode="&#59026;" d="M759.291 626.577s25.741-70.787 86.874-123.879c61.134-53.090 115.833-65.962 119.053-64.353 1.609 0 20.914 14.478-3.219 22.523-24.132 8.043-75.615 37.003-104.571 62.742-57.917 51.483-72.396 111.006-70.787 111.006 8.043 4.827 19.305 12.87 19.305 33.786s-12.87 48.265-46.657 48.265c-33.786 0-45.045-27.348-45.045-48.265 0-22.523 24.132-41.828 45.045-41.828zM897.646 639.445c8.043 38.61 3.219 64.353-16.090 101.356-22.523 41.828-104.571 96.527-191.446 48.265-86.874-49.872-80.441-162.49-32.174-212.361 46.657-49.872 114.225-45.045 114.225-45.045 4.827 0 8.043 3.219 8.043 9.653v4.827c0 4.827-4.827 9.653-9.653 9.653 0 0-24.132 0-49.872 9.653-11.263 4.827-57.917 27.348-69.178 82.049-11.263 54.7 19.305 101.356 54.7 120.659 49.872 27.348 102.962 22.523 148.009-28.959 25.741-30.567 25.741-85.266 16.090-109.398-11.263-25.741-19.305-30.567-19.305-30.567-3.219-3.219-3.219-9.653 0-12.87l6.434-4.827c3.219-3.219 9.653-3.219 12.87 1.609-1.609-3.219 19.305 17.696 27.348 56.308zM239.649 464.089c1.609-1.609-86.874-83.658-127.095-223.622-40.22-138.356-24.132-215.58-19.305-239.712s35.394-30.567 40.22 0c3.219 30.567-11.263 123.879 20.914 226.841 37.003 117.441 111.006 202.708 114.225 199.489 14.478-11.263 28.959-14.478 48.265-14.478 46.657 0 80.441 37.003 80.441 82.049 0 46.657-35.394 80.441-80.441 80.441-46.657 0-82.049-33.786-82.049-80.441-1.609-11.263 0-20.914 4.827-30.567zM241.26 277.467c-12.87-27.348 38.61-33.786 70.787-33.786 170.532 0 239.712 143.184 244.537 231.666 6.434 107.79-72.396 259.017-241.321 259.017s-250.973-133.531-250.973-259.017c0-78.831 35.394-120.659 61.134-106.181 24.132 12.87-14.478 59.525-14.478 106.181 0 78.831 46.657 213.969 201.099 213.969 151.227 0 204.317-131.922 199.489-213.969-4.827-82.049-83.658-186.621-199.489-186.621-6.434 0-59.525 16.090-70.787-11.263z"  horiz-adv-x="1024" />

    
    <glyph glyph-name="plus-pause" unicode="&#59171;" d="M512 896c-282.765 0-512-229.235-512-512 0-282.765 229.235-512 512-512s512 229.235 512 512c0 282.765-229.235 512-512 512zM512-76.8c-254.080 0-460.8 206.72-460.8 460.8s206.72 460.8 460.8 460.8 460.8-206.72 460.8-460.8-206.72-460.8-460.8-460.8zM358.4 614.4h51.2v-460.8h-51.2v460.8zM614.4 614.4h51.2v-460.8h-51.2v460.8z"  horiz-adv-x="1024" />

    
    <glyph glyph-name="home" unicode="&#58924;" d="M1012.772284 438.594409L534.61302 822.612573a31.958876 31.958876 0 0 1-9.147334 6.402827 31.847336 31.847336 0 0 1-8.875134 2.63399 32.235169 32.235169 0 0 1-6.124488 0.292665 31.865755 31.865755 0 0 1-21.079084-9.330506L9.862625 438.848189c-12.489452-12.489452-12.489452-32.737612 0-45.227064 12.489452-12.489452 32.737612-12.489452 45.227064 0l72.853262 58.303894v-483.414965c0-17.662265 14.3181-31.980365 31.980365-31.980365H415.765215c8.831132 0 16.826224 3.579525 22.613021 9.367345a32.116465 32.116465 0 0 1 5.507434 7.369851 31.833009 31.833009 0 0 1 3.85991 15.244192V320.039269h127.921462v-351.528192a31.836079 31.836079 0 0 1 4.63046-16.5837c5.608741-9.231245 15.759939-15.397688 27.349905-15.397688H863.49033c17.662265 0 31.980365 14.3181 31.980365 31.980365V451.251683l72.075549-57.885361c12.489452-12.489452 32.737612-12.489452 45.227064 0s12.488429 32.738635-0.001024 45.228087zM831.508941 0.490419H639.627772V352.019635c0 17.662265-14.3181 31.980365-31.980365 31.980365H415.765215c-17.662265 0-31.980365-14.3181-31.980365-31.980365v-351.529216H191.902658V503.113865l320.057433 256.141728 319.54885-256.635985v-502.129189z"  horiz-adv-x="1024" />

    
    <glyph glyph-name="zengjia" unicode="&#58899;" d="M33.344 417.28h958.976v-66.688H33.344zM479.552 863.488h66.688v-958.976H479.552z"  horiz-adv-x="1024" />

    
    <glyph glyph-name="qiyong" unicode="&#58945;" d="M512 844.8c-253.44 0-460.8-207.36-460.8-460.8s207.36-460.8 460.8-460.8 460.8 207.36 460.8 460.8-207.36 460.8-460.8 460.8z m0-870.4c-225.28 0-409.6 184.32-409.6 409.6s184.32 409.6 409.6 409.6 409.6-184.32 409.6-409.6-184.32-409.6-409.6-409.6zM719.36 404.48l-307.2 204.8c-7.68 5.12-17.92 5.12-25.6 0-7.68-5.12-12.8-12.8-12.8-23.04v-409.6c0-10.24 5.12-17.92 12.8-23.04 2.56-2.56 7.68-2.56 12.8-2.56s10.24 2.56 15.36 5.12l307.2 204.8c7.68 5.12 10.24 12.8 10.24 20.48s-7.68 17.92-12.8 23.04z m-296.96-176.64v314.88l235.52-156.16-235.52-158.72z"  horiz-adv-x="1024" />

    
    <glyph glyph-name="renzheng" unicode="&#58895;" d="M865.24 685.957l-0.005 25.768-25.68 2.131c-163.422 13.563-313.236 89.85-314.718 90.612L512 811.09l-12.838-6.623c-1.489-0.769-150.87-77.015-314.717-90.612l-25.68-2.131-0.005-25.768c-0.031-164.221 0-353.89 0-353.885 0-42.448 9.577-87.979 27.694-131.673 17.67-42.613 43.491-83.614 74.67-118.571 32.91-36.896 70.456-66.199 111.597-87.096 44.829-22.77 91.689-34.314 139.278-34.314s94.449 11.545 139.278 34.314c41.141 20.896 78.688 50.199 111.597 87.096 31.18 34.957 57 75.958 74.671 118.571 18.117 43.693 27.694 89.225 27.694 131.668 0.001 0 0.032 189.67 0.001 353.891z m-56-353.886c0-142.973-132.588-315.654-297.24-315.654-164.652 0-297.24 172.682-297.24 315.659 0 0-0.028 170.806-0.004 328.579 81.834 9.797 157.425 32.708 208.375 51.108 41.201 14.879 72.454 28.89 88.87 36.66 16.416-7.77 47.669-21.78 88.87-36.66 50.949-18.4 126.54-41.311 208.374-51.108 0.023-157.773-0.005-328.578-0.005-328.584zM652.04 508.688L462.055 318.703l-90.1 90.05c-10.937 10.932-28.667 10.927-39.598-0.011-10.932-10.938-10.927-28.666 0.011-39.598l129.697-129.627L691.638 469.09c10.935 10.935 10.935 28.663 0 39.598-10.934 10.935-28.664 10.935-39.598 0z"  horiz-adv-x="1024" />

    
    <glyph glyph-name="import" unicode="&#59031;" d="M487 222.8v574.1h50v-574.1l208.3 208.3 35.4-35.4-268.7-268.6-268.7 268.7 35.4 35.4 208.3-208.4zM832.1 651.1v-50h74.9v-580h-790v580h74.9v50h-124.9v-680h890v680h-124.9z"  horiz-adv-x="1024" />

    
    <glyph glyph-name="export" unicode="&#59032;" d="M278.7 492.8l-35.4 35.4 268.7 268.7 268.7-268.7-35.4-35.4-208.3 208.4v-574.1h-50v574.1l-208.3-208.4zM832.1 651.1v-50h74.9v-580h-790v580h74.9v50h-124.9v-680h890v680h-124.9z"  horiz-adv-x="1024" />

    
    <glyph glyph-name="tuichu" unicode="&#58949;" d="M511.991851-127.982934c-282.320581 0-511.991381 229.679334-511.991382 511.991382 0 282.277915 229.670801 511.991381 511.991382 511.991381a510.813801 510.813801 0 0 0 344.271538-133.032427 42.640349 42.640349 0 0 0 2.901284-60.244319c-15.829067-17.493039-42.793946-18.730351-60.286985-2.901285A425.840298 425.840298 0 0 1 511.991851 810.667932c-235.26004 0-426.659485-191.399445-426.659485-426.659484 0-235.302706 191.399445-426.659485 426.659485-426.659485 105.982216 0 207.569839 39.082009 286.032518 110.078147a42.606216 42.606216 0 0 0 60.244319-2.986616 42.640349 42.640349 0 0 0-2.986616-60.244319c-94.163748-85.246565-216.103029-132.179108-343.290221-132.179109M885.975955 343.552596H341.328057c-23.466272 0-42.665948 19.199677-42.665948 42.665948s19.199677 42.665948 42.665948 42.665948h544.647898L792.989787 524.550082a42.77688 42.77688 0 0 0 0 60.329651 42.77688 42.77688 0 0 0 60.329651 0l158.205337-162.770593a42.58915 42.58915 0 0 0 12.356059-32.946646 42.77688 42.77688 0 0 0 0-5.879367 42.58915 42.58915 0 0 0-12.356059-32.955179L853.319438 187.557355a42.77688 42.77688 0 0 0-60.329651 0 42.77688 42.77688 0 0 0 0 60.329651l92.986168 95.674123z"  horiz-adv-x="1024" />

    
    <glyph glyph-name="set-process" unicode="&#59206;" d="M945.9 174.1v50h-81.8c-4.2 29.6-15.9 56.9-33.1 79.8l57.8 57.8-35.4 35.4-57.8-57.8c-22.9 17.2-50.2 28.8-79.8 33.1v81.8h-50v-81.8c-29.6-4.2-56.9-15.9-79.8-33.1l-57.8 57.8-35.4-35.4 57.8-57.8c-17.2-22.9-28.8-50.2-33.1-79.8h-81.8v-50h81.8c4.2-29.6 15.9-56.9 33.1-79.8l-57.8-57.8 35.4-35.4 57.8 57.8c22.9-17.2 50.2-28.8 79.8-33.1v-81.8h50v81.8c29.6 4.2 56.9 15.9 79.8 33.1l57.8-57.8 35.4 35.4-57.8 57.8c17.2 22.9 28.8 50.2 33.1 79.8h81.8zM814.6 181.2c-2.9-20.6-11.1-40.2-23.6-56.9l-10.8-14.5-14.4-10.8c-16.7-12.5-36.3-20.6-56.9-23.6l-17.9-2.6-17.9 2.6c-20.6 2.9-40.2 11.1-56.9 23.6l-14.5 10.8-10.8 14.5c-12.5 16.7-20.6 36.3-23.6 56.9l-2.6 17.9 2.6 17.9c2.9 20.6 11.1 40.2 23.6 56.9l10.8 14.5 14.5 10.8c16.7 12.5 36.3 20.6 56.9 23.6l17.9 2.6 17.9-2.6c20.6-2.9 40.2-11.1 56.9-23.6l14.5-10.8 10.8-14.5c12.5-16.7 20.6-36.3 23.6-56.9l2.6-17.9-2.7-17.9zM277.4 260.5h76.1v-50h-231.1v-220h231.1v-50h-281.1v320h155v153.3h220.6v-50h-170.6v-103.3zM484.4 441h50v66.4h200v320h-450v-320h200v-66.4zM334.4 557.5v220h350v-220h-350z"  horiz-adv-x="1024" />

    
    <glyph glyph-name="liuchengxiangdao" unicode="&#58997;" d="M716.37 779.003H594.753c-50.367 0-91.205-40.844-91.205-91.21s40.838-91.206 91.205-91.206H716.37c50.368 0 91.212 40.838 91.212 91.205s-40.844 91.211-91.212 91.211z m0-121.615H594.753a30.495 30.495 0 0 0-30.404 30.404 30.495 30.495 0 0 0 30.404 30.404H716.37a30.495 30.495 0 0 0 30.404-30.404 30.495 30.495 0 0 0-30.404-30.404z m0-182.416H594.753c-50.367 0-91.205-40.844-91.205-91.211s40.838-91.205 91.205-91.205H716.37c50.368 0 91.212 40.838 91.212 91.205s-40.844 91.211-91.212 91.211z m0-121.615H594.753a30.495 30.495 0 0 0-30.404 30.404 30.495 30.495 0 0 0 30.404 30.404H716.37a30.495 30.495 0 0 0 30.404-30.404 30.495 30.495 0 0 0-30.404-30.404z m0-182.416H594.753c-50.367 0-91.205-40.844-91.205-91.211s40.838-91.212 91.205-91.212H716.37c50.368 0 91.212 40.844 91.212 91.212s-40.844 91.211-91.212 91.211z m0-121.615H594.753a30.495 30.495 0 0 0-30.404 30.404 30.495 30.495 0 0 0 30.404 30.403H716.37a30.495 30.495 0 0 0 30.404-30.403 30.495 30.495 0 0 0-30.404-30.404z m-334.436 60.807c-32.532 0-63.034 12.668-86.043 35.572-22.905 23.003-35.565 53.511-35.565 86.044 0 32.532 12.66 63.034 35.565 86.037 23.009 23.009 53.51 35.571 86.043 35.571h60.808v60.808h-60.808c-100.734 0-182.416-81.675-182.416-182.41 0-100.734 81.675-182.423 182.416-182.423v-60.807l91.212 91.211-91.212 91.212v-60.808z m547.255 608.07h-60.8v-60.808h60.8c32.533 0 63.041-12.667 86.044-35.565 23.002-23.01 35.571-53.511 35.571-86.044 0-32.532-12.667-63.034-35.571-86.043-23.003-22.905-53.511-35.565-86.044-35.565v60.8l-91.205-91.217 91.205-91.205v60.801c100.735 0 182.423 81.688 182.423 182.423s-81.682 182.416-182.423 182.416z"  horiz-adv-x="1324" />

    
    <glyph glyph-name="shanchu" unicode="&#58890;" d="M580.352 148.352V507.328c0 41.856 65.344 41.856 65.344 0v-358.912c0.064-41.856-65.344-41.856-65.344-0.064z m-196.032 0V507.328c0 41.856 65.344 41.856 65.344 0v-358.912c0-41.856-65.344-41.856-65.344-0.064z m555.584 522.112h-163.392v65.28c0 54.08-43.968 97.856-97.088 97.856H351.616a97.92 97.92 0 0 1-98.048-97.856v-65.28H90.176c-41.856 0-41.856-65.216 0-65.216h849.664c41.92 0 41.92 65.216 0.064 65.216z m-620.928 65.28c0 17.344 15.296 32.64 32.64 32.64h327.808c17.344 0 31.68-13.312 31.68-32.64v-65.28H318.976v65.28z m424.832-815.744H286.272a97.92 97.92 0 0 0-97.984 97.856V507.328c0 19.392 15.296 32.64 32.64 32.64s32.704-13.248 32.704-32.64v-489.408c0-17.344 15.36-32.64 32.64-32.64h457.536a33.6 33.6 0 0 1 32.704 32.64V506.304c0 42.816 65.344 42.816 65.344 0v-488.448a97.984 97.984 0 0 0-98.048-97.856z m0 0"  horiz-adv-x="1024" />

    
    <glyph glyph-name="faduanxin" unicode="&#58909;" d="M369.493333 198.826667a64 64 0 0 1-42.666666 15.36H208.213333A59.306667 59.306667 0 0 0 149.333333 273.066667V624.213333A59.306667 59.306667 0 0 0 208.213333 682.666667h479.573334a21.333333 21.333333 0 1 1 0 42.666666H208.213333A101.973333 101.973333 0 0 1 106.666667 624.213333v-351.146666A101.973333 101.973333 0 0 1 208.213333 170.666667h119.893334a21.333333 21.333333 0 0 0 13.226666-4.266667l32-27.306667a21.333333 21.333333 0 0 1 28.16 31.573334zM896 517.546667a21.333333 21.333333 0 0 1-21.333333-21.333334v-223.146666a59.306667 59.306667 0 0 0-58.88-59.733334h-119.893334a64 64 0 0 1-42.666666-15.36l-128-109.226666a21.333333 21.333333 0 0 0-27.733334 0 21.333333 21.333333 0 1 1-27.733333-32.426667 63.573333 63.573333 0 0 1 82.773333 0l128 109.226667a21.333333 21.333333 0 0 0 13.653334 5.12h119.893333a101.973333 101.973333 0 0 1 103.253333 102.4V496.213333a21.333333 21.333333 0 0 1-21.333333 21.333334zM512 445.013333m-42.666667 0a42.666667 42.666667 0 1 1 85.333334 0 42.666667 42.666667 0 1 1-85.333334 0ZM298.666667 445.013333m-42.666667 0a42.666667 42.666667 0 1 1 85.333333 0 42.666667 42.666667 0 1 1-85.333333 0ZM725.333333 445.013333m-42.666666 0a42.666667 42.666667 0 1 1 85.333333 0 42.666667 42.666667 0 1 1-85.333333 0ZM938.666667 682.666667h-64V747.52a21.333333 21.333333 0 0 1-42.666667 0V682.666667H768a21.333333 21.333333 0 0 1 0-42.666667h64v-64a21.333333 21.333333 0 1 1 42.666667 0V640H938.666667a21.333333 21.333333 0 0 1 0 42.666667z"  horiz-adv-x="1024" />

    
    <glyph glyph-name="yanzheng" unicode="&#58983;" d="M352.556 263.411v-50.915c-17.879-3.601-38.437-8.04-61.634-13.398-39.316-8.961-67.915-15.199-85.751-18.758l-10.72 61.633c32.157 1.758 84.831 8.92 158.105 21.438z m42.877 101.831c8.918 0 24.117 0.879 45.555 2.679a263.41 263.41 0 0 1-2.679-37.517c-5.36-128.627-13.399-199.18-24.118-211.699-14.32-17.837-47.356-31.235-99.15-40.195-5.36 0-9.84-0.88-13.399-2.681-5.359 23.238-14.319 44.677-26.797 64.314 48.235-5.359 78.592-1.759 91.111 10.719 5.359 8.919 9.797 25.876 13.398 50.915 3.56 23.196 6.239 63.393 8.04 120.588-39.317-3.601-93.791-8.039-163.465-13.398 1.759 26.798 3.559 65.193 5.359 115.229 1.759 53.595 2.68 92.87 2.68 117.909 42.876-1.801 65.193-5.359 66.994-10.719 0-3.601-1.801-7.16-5.359-10.719-3.602-8.96-5.36-17.878-5.36-26.797-1.801-3.601-2.68-10.719-2.68-21.438-7.16-60.754-9.84-99.151-8.039-115.228h26.797c21.438 1.758 35.717 2.679 42.876 2.679 7.118 103.589 12.479 179.543 16.079 227.778-83.993-3.601-139.347-7.16-166.144-10.719v64.314c24.996-5.36 100.029-6.281 225.098-2.68-10.719-85.752-19.679-176.864-26.797-273.334zM577.655 692.17c42.875-7.16 66.993-13.399 72.353-18.758 0-3.601-1.8-7.16-5.359-10.719-3.602-3.601-5.36-6.28-5.36-8.039 32.157-69.673 95.55-125.069 190.262-166.144-17.879-14.32-31.277-33.078-40.195-56.275-100.073 53.595-158.107 119.667-174.184 198.301-28.599-64.314-82.194-135.788-160.785-214.38-14.319 12.478-30.398 24.997-48.235 37.517 83.951 55.353 141.105 134.867 171.503 238.497z m115.229-305.491c44.635-8.96 68.752-17 72.353-24.118 0-3.601-2.679-8.039-8.039-13.398-7.159-7.16-10.719-12.52-10.719-16.078-1.8-5.359-3.601-11.641-5.359-18.759-23.238-73.274-41.996-129.549-56.274-168.823h16.078c37.517-1.801 66.072-0.921 85.752 2.68v-45.556c-19.68 3.601-48.235 4.479-85.752 2.68H548.178c-50.036 1.8-83.994 0.921-101.83-2.68v48.235c10.719-1.801 26.797-3.602 48.234-5.359h136.667c30.357 69.673 50.916 150.065 61.635 241.176z m-179.543-16.077c16.078-46.478 30.356-104.511 42.876-174.184l-56.275-10.719c-7.159 75.032-18.758 133.065-34.836 174.183l48.235 10.72z m0 99.149c1.759 0 10.719-0.921 26.798-2.68H655.368c32.157 1.759 52.674 2.68 61.635 2.68v-50.916c-16.079 1.759-45.557 3.56-88.432 5.36h-34.837c-37.517 0-64.314-0.921-80.393-2.68v48.236zM617.851 384c12.479-64.313 19.638-117.909 21.438-160.785l-56.274-8.039c-1.8 57.154-8.96 110.749-21.438 160.785L617.851 384zM1010.369 209.642c-16.248 13.763-40.584 11.768-54.347-4.489L753.62-33.757l-87.162 80.79c-15.619 14.489-40.021 13.539-54.488-2.07-14.479-15.617-13.548-40.009 2.07-54.487l116.733-108.194a38.528 38.528 0 0 1 26.208-10.281c0.773 0 1.545 0.019 2.326 0.066a38.56 38.56 0 0 1 27.093 13.564l228.459 269.663c13.763 16.249 11.759 40.584-4.49 54.348zM565.03-59.51a452.858 452.858 0 0 0-53.03-3.123c-60.324 0-118.809 11.8-173.83 35.072-53.177 22.492-100.948 54.704-141.987 95.743-41.04 41.039-73.252 88.811-95.744 141.987C77.167 265.191 65.367 323.676 65.367 384c0 60.324 11.8 118.809 35.072 173.83 22.492 53.177 54.705 100.948 95.744 141.987 41.039 41.04 88.811 73.252 141.987 95.744C393.191 818.833 451.676 830.633 512 830.633c60.324 0 118.81-11.8 173.83-35.072 53.177-22.492 100.948-54.705 141.987-95.744s73.251-88.811 95.743-141.987c23.272-55.021 35.072-113.506 35.072-173.83 0-34.811-3.944-69.005-11.742-102.278a108.615 108.615 0 0 0 38.56 7.063c9.841 0 19.57-1.356 28.935-3.95 6.298 32.083 9.609 65.236 9.609 99.165C1023.994 666.766 794.767 895.994 512 895.994 229.234 895.994 0.006 666.766 0.006 384c0-282.767 229.228-511.994 511.994-511.994 38.935 0 76.848 4.363 113.293 12.597l-58.837 54.533c-0.481 0.446-0.953 0.9-1.426 1.354z"  horiz-adv-x="1024" />

    
    <glyph glyph-name="success" unicode="&#58884;" d="M512 832a448 448 0 1 0-448-448 448 448 0 0 0 448 448m0 64a512 512 0 1 1 512-512 512 512 0 0 1-512 512zM768 533.76a32 32 0 0 1-44.8 0L448 263.03999999999996 302.72 409.6a32 32 0 1 1-46.72-44.8l148.48-147.2 45.44-45.44L768 488.32a32 32 0 0 1 0 45.44z"  horiz-adv-x="1024" />

    
    <glyph glyph-name="yunxiazai" unicode="&#58880;" d="M796.444 440.889c-11.377 159.289-147.91 284.444-312.888 284.444S187.733 600.178 170.666 440.89C73.957 429.51 0 344.178 0 241.778c0-108.09 91.022-199.111 199.111-199.111h28.445v56.889H199.11c-79.644 0-142.222 62.577-142.222 142.222 0 73.955 51.2 130.844 125.155 142.222l45.512 5.689V435.2c11.377 130.844 125.155 233.244 256 233.244s244.622-102.4 256-233.244l5.688-45.511L785.067 384c68.266-11.378 125.155-68.267 125.155-142.222 0-79.645-62.578-142.222-142.222-142.222h-28.444v-56.89H768c108.089 0 199.111 91.023 199.111 199.112 0 102.4-73.955 182.044-170.667 199.11zM688.356 184.889l-39.823 39.822L512 88.178v409.6h-56.889v-403.911L324.267 224.71l-39.823-39.822 199.112-199.111z"  horiz-adv-x="1024" />

    
    <glyph glyph-name="yunshangchuan" unicode="&#58881;" d="M341.333 99.556v-56.89h284.445v56.89H341.333z m-142.222-56.89C91.022 42.667 0 133.69 0 241.779c0 102.4 73.956 182.044 170.667 199.11 11.377 159.29 147.91 284.445 312.889 284.445S779.378 600.178 796.444 440.89c96.712-11.378 170.667-96.711 170.667-199.111 0-108.09-91.022-199.111-199.111-199.111H199.111zM768 99.557c79.644 0 142.222 62.577 142.222 142.222 0 73.955-51.2 130.844-125.155 142.222l-45.511 5.689V435.2c-11.378 130.844-125.156 233.244-256 233.244s-244.623-102.4-256-233.244l-5.69-45.511L182.045 384C108.09 372.622 56.89 315.733 56.89 241.778c0-79.645 62.578-142.222 142.222-142.222H768zM484.409 500.622L685.568 299.52l-40.22-40.22-201.16 201.102zM282.738 296.676L483.84 497.778l40.22-40.22-201.102-201.16zM455.111 440.889H512v-455.111h-56.889z"  horiz-adv-x="1024" />

    
    <glyph glyph-name="icon-" unicode="&#59099;" d="M512-128C230.4-128 0 102.39999999999998 0 384S230.4 896 512 896s512-230.4 512-512-230.4-512-512-512z m0 960C265.6 832 64 630.4 64 384s201.6-448 448-448 448 201.6 448 448S758.4 832 512 832zM640 192h-256c-35.2 0-64 28.8-64 64v256c0 35.2 28.8 64 64 64h256c35.2 0 64-28.8 64-64v-256c0-35.2-28.8-64-64-64z m-256 320v-256h256v256h-256z"  horiz-adv-x="1024" />

    
    <glyph glyph-name="icon-1" unicode="&#59103;" d="M512-128C230.4-128 0 102.39999999999998 0 384 0 585.6 121.6 771.2 307.2 854.4c16 6.4 35.2 0 41.6-16 6.4-16 0-35.2-16-41.6C169.6 723.2 64 563.2 64 384c0-246.4 201.6-448 448-448s448 201.6 448 448c0 179.2-105.6 339.2-268.8 409.6-16 6.4-22.4 25.6-16 41.6s25.6 22.4 41.6 16C902.4 771.2 1024 588.8 1024 384c0-281.6-230.4-512-512-512zM512 384c-19.2 0-32 12.8-32 32V864c0 19.2 12.8 32 32 32s32-12.8 32-32v-448c0-19.2-12.8-32-32-32z"  horiz-adv-x="1024" />

    
    <glyph glyph-name="lvzhou_duanxinxiangqing" unicode="&#58917;" d="M961.8019939 744.42851854C940.90434889 765.69070554 913.21987123 777.4002357100001 883.84248272 777.4002357100001H126.20688245c-55.09692967 0-101.64369298-45.79144338-101.64369298-99.99496904v-496.53102819C24.56318947 121.48565551000002 75.1461505 73.17141595999999 137.31988939 73.17141595999999H179.21736163v-66.28035951a27.61957814 27.61957814 0 0 1 42.15154698-23.48257904L366.39862026 73.17141595999999h528.55963108c26.28292422 0 50.95302637 9.72802361 69.46457845 27.39035857C983.4397696 118.71016546999999 993.91344725 143.28360873999998 993.91344725 169.76261237000006V666.28949805c0 29.32077403-11.40436435 57.07015121-32.11145335 78.13902049zM938.67981431 169.76261237000006C938.67981431 146.57139075999999 919.47508016 128.40504887999998 894.95825134 128.40504887999998h-536.41523453a27.60991227 27.60991227 0 0 1-14.53334966-4.13423742L234.45099457 56.46186117000002V100.78823241999999c0 15.25276773-12.36404873 27.61681646-27.61681647 27.61681646h-69.51428871C105.60197569 128.40504887999998 79.79682238 151.94286154999998 79.79682238 180.87423848000003V677.40526667C79.79682238 700.83261208 101.91789237 722.1666028 126.20688245 722.1666028h757.63560027C913.56646227 722.1666028 938.67981431 696.57824151 938.67981431 666.28949805v-496.52688568zM252.76922893 429.42834829m-55.59955574 0a55.59955573 55.59955573 0 1 1 111.19911148 0 55.59955573 55.59955573 0 1 1-111.19911148 0ZM509.23831837 429.42834829m-55.59955576 0a55.59955573 55.59955573 0 1 1 111.19911149 0 55.59955573 55.59955573 0 1 1-111.19911149 0ZM765.70740778 429.42834829m-55.59955574 0a55.59955573 55.59955573 0 1 1 111.19911148 0 55.59955573 55.59955573 0 1 1-111.19911148 0Z"  horiz-adv-x="1024" />

    
    <glyph glyph-name="task" unicode="&#58896;" d="M109.714286 822.857143c-21.942857 0-36.571429-14.628571-36.571429-36.571429v-804.571428c0-21.942857 14.628571-36.571429 36.571429-36.571429h804.571428c21.942857 0 36.571429 14.628571 36.571429 36.571429v804.571428c0 21.942857-14.628571 36.571429-36.571429 36.571429h-804.571428z m0 73.142857h804.571428c58.514286 0 109.714286-51.2 109.714286-109.714286v-804.571428c0-58.514286-51.2-109.714286-109.714286-109.714286h-804.571428C51.2-128 0-76.79999999999995 0-18.285713999999984v804.571428C0 844.8 51.2 896 109.714286 896z m438.857143-292.571429h219.428571c21.942857 0 36.571429-14.628571 36.571429-36.571428s-14.628571-36.571429-36.571429-36.571429h-219.428571c-21.942857 0-36.571429 14.628571-36.571429 36.571429s14.628571 36.571429 36.571429 36.571428z m-219.428572-438.857142c21.942857 0 36.571429 14.628571 36.571429 36.571428S351.085714 237.71428600000002 329.142857 237.71428600000002s-36.571429-14.628571-36.571428-36.571429 14.628571-36.571429 36.571428-36.571428z m0-73.142858C270.628571 91.42857100000003 219.428571 142.62857099999997 219.428571 201.14285700000005S270.628571 310.85714299999995 329.142857 310.85714299999995 438.857143 259.657143 438.857143 201.14285700000005 387.657143 91.42857100000003 329.142857 91.42857100000003z m-7.314286 446.171429L241.371429 618.057143c-14.628571 14.628571-36.571429 14.628571-51.2 0-14.628571-14.628571-14.628571-36.571429 0-51.2L292.571429 464.457143c7.314286-7.314286 21.942857-14.628571 29.257142-14.628572s21.942857 0 29.257143 7.314286l153.6 153.6c14.628571 14.628571 14.628571 36.571429 0 51.2-14.628571 14.628571-36.571429 14.628571-51.2 0L321.828571 537.6zM548.571429 237.71428600000002h219.428571c21.942857 0 36.571429-14.628571 36.571429-36.571429s-14.628571-36.571429-36.571429-36.571428h-219.428571c-21.942857 0-36.571429 14.628571-36.571429 36.571428s14.628571 36.571429 36.571429 36.571429z"  horiz-adv-x="1024" />

    
    <glyph glyph-name="xiugaimima" unicode="&#58919;" d="M288 480v96a128 128 0 0 0 256 0v-96h64v96c0 106-86 192-192 192s-192-86-192-192v-96zM512 192h-64v64l384 384 64-64-384-384zM544 160H416V288l160 160H192a64.19 64.19 0 0 1-64-64v-320a64.19 64.19 0 0 1 64-64h448a64.19 64.19 0 0 1 64 64V320z"  horiz-adv-x="1024" />

    
    <glyph glyph-name="liuchengpeizhi" unicode="&#58892;" d="M219.428571 742.4v43.885714c0 21.942857-14.628571 36.571429-36.571428 36.571429s-36.571429-14.628571-36.571429-36.571429v-43.885714c-43.885714-14.628571-73.142857-51.2-73.142857-102.4s29.257143-87.771429 73.142857-102.4v-555.885714c0-21.942857 14.628571-36.571429 36.571429-36.571429s36.571429 14.628571 36.571428 36.571429V537.6c43.885714 14.628571 73.142857 58.514286 73.142858 102.4s-29.257143 87.771429-73.142858 102.4zM512 230.39999999999998V786.285714c0 21.942857-14.628571 36.571429-36.571429 36.571429s-36.571429-14.628571-36.571428-36.571429v-555.885714c-43.885714-14.628571-73.142857-58.514286-73.142857-102.4s29.257143-87.771429 73.142857-102.4v-43.885714c0-21.942857 14.628571-36.571429 36.571428-36.571429s36.571429 14.628571 36.571429 36.571429v43.885714c43.885714 14.628571 73.142857 58.514286 73.142857 102.4s-29.257143 87.771429-73.142857 102.4zM877.714286 640c0 51.2-29.257143 87.771429-73.142857 102.4v43.885714c0 21.942857-14.628571 36.571429-36.571429 36.571429s-36.571429-14.628571-36.571429-36.571429v-43.885714c-43.885714-14.628571-73.142857-51.2-73.142857-102.4s29.257143-87.771429 73.142857-102.4v-555.885714c0-21.942857 14.628571-36.571429 36.571429-36.571429s36.571429 14.628571 36.571429 36.571429V537.6c43.885714 14.628571 73.142857 51.2 73.142857 102.4z"  horiz-adv-x="1024" />

    
    <glyph glyph-name="shezhi" unicode="&#58882;" d="M512 590.681876a205.708492 205.708492 0 1 1 205.708492-205.708492 205.708492 205.708492 0 0 1-205.708492 205.708492z m0-346.200254a140.816223 140.816223 0 1 0 140.816223 140.816223 140.816223 140.816223 0 0 0-140.816223-141.140684zM958.78327 502.42839l-73.003802 11.031686a391.949303 391.949303 0 0 1-16.87199 40.882129l44.126743 60.025349a64.892269 64.892269 0 0 1 0 91.82256l-77.2218 77.870723a64.892269 64.892269 0 0 1-91.82256 0L684.937896 740.258555a392.273764 392.273764 0 0 1-40.882129 17.196451L632.69962 831.107731a64.892269 64.892269 0 0 1-64.892269 64.892269h-109.343473a64.892269 64.892269 0 0 1-64.892268-64.892269l-11.031686-72.679341a392.598226 392.598226 0 0 1-40.882129-16.871989L281.307985 785.683143a64.892269 64.892269 0 0 1-91.82256 0L111.939163 708.136882a64.892269 64.892269 0 0 1 0-91.82256l44.126743-60.025349a392.273764 392.273764 0 0 1-16.547528-39.908745L64.892269 506.646388a64.892269 64.892269 0 0 1-64.892269-64.892269v-109.667934a64.892269 64.892269 0 0 1 64.892269-64.892269l74.301647-11.356147a392.273764 392.273764 0 0 1 16.223068-41.20659L110.316857 153.632446a64.892269 64.892269 0 0 1 0-91.82256l77.546261-77.546261a64.892269 64.892269 0 0 1 91.82256 0l60.674271 44.775665a392.598226 392.598226 0 0 1 39.259823-16.547528l11.356147-75.599493a64.892269 64.892269 0 0 1 64.892269-64.892269h109.667934a64.892269 64.892269 0 0 1 64.892268 64.892269l11.356147 74.301647a392.922687 392.922687 0 0 1 39.584284 16.223068l61.323194-45.100127a64.892269 64.892269 0 0 1 91.82256 0l77.546262 77.546261a64.892269 64.892269 0 0 1 0 91.82256l-44.126743 60.025349a392.273764 392.273764 0 0 1 16.87199 39.908745l74.626109 11.356147a64.892269 64.892269 0 0 1 64.892268 64.892269v109.667934a64.892269 64.892269 0 0 1-65.541191 64.892268z m0-174.560202h-9.73384l-74.626109-11.356147-38.286439-5.840305-12.978454-36.33967a329.328264 329.328264 0 0 0-13.951837-32.446134l-17.196452-35.366287 23.361217-32.446134 44.126743-60.025349 2.920152-3.893536 3.569075-3.569075-77.546261-78.195183-3.569075 3.569074-3.893536 2.920152-61.323194 45.100127-32.446135 23.036756-33.743979-18.169836a329.652725 329.652725 0 0 0-32.446135-13.627376l-36.988593-12.978454-6.489227-38.286438-11.356147-74.301648v-9.73384h-110.316856V-53.04943l-11.356147 75.599493-5.840305 38.286439-36.664131 12.978454a329.003802 329.003802 0 0 0-32.446135 13.627376l-35.366286 16.87199-32.446135-23.036755-60.674271-44.775666-3.893536-2.920152-3.569075-3.569075-77.546261 77.546261 3.569075 3.569075 2.595691 3.893536 45.424588 61.323194 23.036755 32.446135-16.87199 35.041825a329.328264 329.328264 0 0 0-13.627376 32.446134L187.538657 311.969582l-38.6109 6.489227-74.301648 11.356147H64.892269V441.754119h9.73384l74.626109 11.356147 38.6109 5.840304 12.978454 36.664132a329.328264 329.328264 0 0 0 13.951837 32.446135l16.87199 35.041825-23.036755 32.446134-44.451204 59.376426L162.230672 658.818758l-4.217998 3.569075 77.2218 77.546261 3.569075-3.569075 3.893536-2.595691 60.34981-44.775665 32.446134-23.036756 35.041825 16.87199a329.003802 329.003802 0 0 0 34.068441 14.276299l36.988593 12.978454 5.840305 38.6109 10.058301 72.679341V831.107731h110.316857v-9.73384l11.356147-73.652725 4.86692-38.286438 36.664132-12.978454a329.003802 329.003802 0 0 0 34.392902-14.276299l35.366287-17.196452 32.446134 23.361217 59.376426 43.47782 4.217998 1.946768 3.569074 3.569075 77.546261-77.546261-3.569074-3.569075-2.920152-3.893536-44.451204-59.376426-23.036756-32.446134 17.520913-33.74398a328.679341 328.679341 0 0 0 13.951837-34.068441l12.653993-36.988593 38.935361-5.840304 73.003802-11.031686h9.733841z"  horiz-adv-x="1024" />

    
    <glyph glyph-name="liuchengguanli-" unicode="&#58885;" d="M661 390.9H363c-89.8 0-162.9 73.1-162.9 162.9V580c0 89.8 73.1 162.9 162.9 162.9h305.9c13.6-52.7 61.6-91.8 118.6-91.8 67.5 0 122.4 54.9 122.4 122.4S855 896 787.5 896c-56.9 0-104.9-39.1-118.6-91.8H363c-59.9 0-116.1-23.3-158.5-65.6-42.3-42.3-65.6-98.6-65.6-158.5v-26.2c0-59.9 23.3-116.1 65.6-158.5 42.3-42.3 98.6-65.6 158.5-65.6h298c89.8 0 162.9-73.1 162.9-162.9C823.9 77 750.8 4 661 4H358.6c-4.9 63.1-57.8 112.9-122.1 112.9-67.5 0-122.4-54.9-122.4-122.4S169-128 236.5-128c49 0 91.4 29 111 70.7H661c59.9 0 116.1 23.3 158.5 65.6 42.3 42.3 65.6 98.6 65.6 158.5 0 59.9-23.3 116.1-65.6 158.5-42.4 42.3-98.7 65.6-158.5 65.6zM787.5 834.8c33.8 0 61.2-27.5 61.2-61.2 0-33.8-27.5-61.2-61.2-61.2s-61.2 27.5-61.2 61.2 27.4 61.2 61.2 61.2z m-551-901.6c-33.8 0-61.2 27.5-61.2 61.2 0 33.8 27.5 61.2 61.2 61.2 33.8 0 61.2-27.5 61.2-61.2s-27.4-61.2-61.2-61.2z"  horiz-adv-x="1024" />

    
    <glyph glyph-name="Group-" unicode="&#59046;" d="M160 544a32 32 0 0 0-32 32V704a32 32 0 0 0 32 32h128a32 32 0 0 0 32-32v-128a32 32 0 0 0-32-32z m32 64h64V672H192zM416 608a32 32 0 0 0 0 64h448a32 32 0 0 0 0-64zM160 288a32 32 0 0 0-32 32v128a32 32 0 0 0 32 32h128a32 32 0 0 0 32-32v-128a32 32 0 0 0-32-32z m32 64h64v64H192zM416 352a32 32 0 0 0 0 64h448a32 32 0 0 0 0-64zM160 32a32 32 0 0 0-32 32v128a32 32 0 0 0 32 32h128a32 32 0 0 0 32-32v-128a32 32 0 0 0-32-32z m32 64h64v64H192zM416 96a32 32 0 0 0 0 64h448a32 32 0 0 0 0-64z"  horiz-adv-x="1024" />

    
    <glyph glyph-name="change-consulta" unicode="&#58922;" d="M862 831H162c-35.2 0-64-28.8-64-64v-702.6c0-35.2 28.8-64 64-64h205.1l-60.7 64H162.1l-0.1 0.1V766.9l0.1 0.1h699.8l0.1-0.1v-256.5l64-67.5V767c0 35.2-28.8 64-64 64ZM777.1 483.2c-6.2 0-12.4-1.2-18.4-3.6-19.5-7.8-32.1-26.6-32.1-48v-28.4h-40.4c-17.7 0-32-14.3-32-32s14.3-32 32-32h72.4c17.7 0 32 14.3 32 32v27.3l101.8-107.4-101.8-107.4v27.4c0 17.7-14.3 32-32 32H586.5v28.5c0 21.4-12.6 40.2-32.1 48-6 2.4-12.2 3.6-18.4 3.6-13.4 0-26.5-5.5-36.3-15.7L366.2 166.70000000000004c-18.9-20-18.9-51.3 0-71.2l133.4-140.7c9.7-10.3 22.9-15.7 36.3-15.7 6.2 0 12.4 1.2 18.4 3.6 19.5 7.8 32.1 26.6 32.1 48V19h40.4c17.7 0 32 14.3 32 32s-14.3 32-32 32h-72.4c-17.7 0-32-14.3-32-32v-27.3L420.7 131.10000000000002l101.8 107.4v-27.4c0-17.7 14.3-32 32-32h172.1v-28.5c0-21.4 12.6-40.2 32.1-48 6-2.4 12.2-3.6 18.4-3.6 13.4 0 26.5 5.5 36.3 15.7l133.4 140.7c18.9 20 18.9 51.3 0 71.2L813.4 467.5c-9.7 10.2-22.8 15.7-36.3 15.7ZM760.3 664H263.7c-17.7 0-32-14.3-32-32s14.3-32 32-32h496.7c17.7 0 32 14.3 32 32s-14.4 32-32.1 32ZM480.3 536H263.7c-17.7 0-32-14.3-32-32s14.3-32 32-32h216.6c17.7 0 32 14.3 32 32s-14.3 32-32 32Z"  horiz-adv-x="1024" />

    
    <glyph glyph-name="shenpi" unicode="&#59135;" d="M896-32H128c-17.6 0-32 14.4-32 32s14.4 32 32 32h768c17.6 0 32-14.4 32-32s-14.4-32-32-32z m0 128H128c-17.6 0-32 14.4-32 32V288c0 52.8 43.2 96 96 96h204.8c-6.4 38.4-25.6 75.2-52.8 107.2-36.8 41.6-56 94.4-56 148.8 0 60.8 24 118.4 68.8 161.6 44.8 43.2 102.4 64 164.8 62.4C636.8 859.2 734.4 760 736 644.8c1.6-57.6-20.8-113.6-59.2-156.8-27.2-28.8-43.2-64-49.6-104H832c52.8 0 96-43.2 96-96v-160c0-17.6-14.4-32-32-32z m-736 64h704V288c0 17.6-14.4 32-32 32H592c-17.6 0-32 14.4-32 32 0 67.2 24 131.2 68.8 179.2 28.8 30.4 43.2 70.4 43.2 112-1.6 83.2-70.4 153.6-153.6 156.8-44.8 1.6-86.4-14.4-116.8-44.8-32-30.4-49.6-72-49.6-115.2 0-38.4 14.4-76.8 40-105.6 46.4-52.8 72-116.8 72-182.4 0-17.6-14.4-32-32-32H192c-17.6 0-32-14.4-32-32v-128z"  horiz-adv-x="1024" />

    
    <glyph glyph-name="you" unicode="&#58939;" d="M740.07331363 754.66497779c13.09501624 0 24.03945947-4.38766503 32.96928381-13.39164711l324.44000245-324.316406C1106.41860453 407.94676232 1110.84952799 397.0023191 1110.84952799 384c0-13.1320951-4.43092346-24.07653833-13.3669281-32.95692468l-324.44000245-324.44000244c-8.93600464-9.01634193-19.87426758-13.3916471-32.96928381-13.3916471-13.2618711 0-24.34844947 4.37530518-33.11759996 13.1320951-8.80622864 8.88656592-13.22479224 19.96078515-13.22479225 33.21647668 0 13.0023191 4.48036218 23.94676232 13.37928796 32.95692467L952.66494265 337.65142822999996H230.24520364c-12.79220581 0-23.69338989 4.51126075-32.77153038 13.5214231C188.40789262 360.30661010999995 183.87809244 371.12127662 183.87809244 384c0 12.74894738 4.52980018 23.68721032 13.59558082 32.70355224C206.55799333 425.83731103 217.45917741 430.34857177 230.23902408 430.34857177h722.42591857L707.11020938 675.48307777c-8.89892578 8.88038635-13.37928796 19.95460487-13.37928796 32.95692467 0 13.2618711 4.4185636 24.33609033 13.22479225 33.08670068C715.72486344 750.4132690399999 726.81144182 754.78857422 740.07331363 754.78857422v-0.12359643z"  horiz-adv-x="1280" />

    
    <glyph glyph-name="zuo" unicode="&#58946;" d="M554.64194766 754.78857422c12.79220581 0 23.71810889-4.50508117 32.77152968-13.64501953 9.05960107-9.01016235 13.59558082-19.95460487 13.59558153-32.6911924 0-13.1320951-4.57305932-24.07653833-13.76861596-32.95692466l-245.12832642-245.09124757h722.35794044c12.79838538 0 23.69338989-4.50508117 32.81478882-13.64501953 9.02252221-9.01016235 13.56468224-19.94842529 13.56468224-32.69119239 0-12.87872338-4.54216003-23.81698632-13.57086182-32.82714867-9.11521935-9.01016235-20.01022315-13.51524353-32.80242896-13.51524353H342.11829606l245.12214685-245.09124756c9.19555664-9.01016235 13.76861596-19.95460487 13.76861596-32.9507444 0-12.8725431-4.53598046-23.81698632-13.59558153-32.82714867-9.05342078-9.13993836-19.98550415-13.64501953-32.77152968-13.64501953-13.05175781 0-24.03945947 4.50508117-32.95692467 13.38546753L197.2573804 350.98127747C188.34609476 360.37458825 183.87809244 371.45498633 183.87809244 383.93820214000004c0 12.60681153 4.46800232 23.55125404 13.37928796 32.95074439l324.42764259 324.37820459C530.8620402 750.15371704 541.84356156 754.66497779 554.64194766 754.66497779V754.78857422z"  horiz-adv-x="1280" />

    
    <glyph glyph-name="chuanshuliebiao" unicode="&#58943;" d="M806.7072 425.472A290.816 290.816 0 0 1 252.16 524.5952a217.5488 217.5488 0 0 1-9.8304-428.1344 149.1456 149.1456 0 0 1 37.0176-4.352h504.4224a167.8336 167.8336 0 0 1 167.7824 167.7824c1.0752 82.7904-62.1056 154.6752-144.896 165.5808z m-44.6464-44.6464a26.2656 26.2656 0 0 1 19.6096-7.6288h4.352a113.3056 113.3056 0 0 0 0-226.6112H280.5248a114.3808 114.3808 0 0 0-26.1632 3.2768 164.1984 164.1984 0 0 0 19.6096 324.6592 27.3408 27.3408 0 0 1 22.9888 17.408 237.3632 237.3632 0 0 0 458.6496-84.992v-3.2768c-1.0752-10.9056 1.0752-17.408 6.5536-22.8864zM489.6768 338.3296a23.1936 23.1936 0 0 1-30.72 0l-27.2384-27.2384V437.4528a21.8112 21.8112 0 1 1-43.5712 0v-126.3616l-27.2384 27.2384a23.1936 23.1936 0 0 1-30.72 0 21.0432 21.0432 0 0 1 0-30.72l64.256-64.256c1.0752-1.0752 2.2016-1.0752 3.2768-2.2016s2.2016-1.0752 3.2768-2.2016c1.0752 0 2.2016-1.0752 3.2768-1.0752h10.9056c1.0752 0 2.2016 1.0752 3.2768 1.0752a22.784 22.784 0 0 1 6.5536 4.352l64.256 64.256a21.0432 21.0432 0 0 1 0 30.72zM670.72 387.328l-64.4608 64.3072-1.0752 1.0752c-1.0752 0-1.0752 1.0752-2.2016 1.0752s-1.0752 1.0752-2.2016 1.0752-1.0752 1.0752-2.2016 1.0752-1.0752 0-2.2016 1.0752h-13.056c-1.0752 0-1.0752 0-2.2016-1.0752a1.0752 1.0752 0 0 1-1.0752-1.0752c-1.0752 0-1.0752-1.0752-2.2016-1.0752l-1.0752-1.0752c-1.0752 0-1.0752-1.0752-2.2016-1.0752L510.3616 387.328a21.5552 21.5552 0 0 1 30.72-30.72L568.32 384v-126.3616a21.8112 21.8112 0 0 1 43.5712 0V384l27.2384-27.2384a21.0432 21.0432 0 0 1 30.72 0 20.48 20.48 0 0 1 1.0752 30.72z"  horiz-adv-x="1024" />

    
    <glyph glyph-name="icon-test" unicode="&#58908;" d="M882.3 636.4l-0.2-0.1c-8.1 11.2-21.3 18.6-36.2 18.6-24.7 0-44.8-20.1-44.8-44.8 0-8.9 2.7-17.2 7.2-24.2 0.3-0.4 0.5-0.8 0.8-1.2 40.1-59.3 61.3-128.5 61.3-200.4 0-197.6-160.8-358.4-358.4-358.4S153.6 186.60000000000002 153.6 384.2c0 71.8 21.2 141.1 61.2 200.4 4.8 7.2 7.7 15.8 7.7 25.1 0 24.7-20.1 44.8-44.8 44.8-15.5 0-29.1-7.8-37.1-19.7C90.5 560.6 64 474 64 384.2c0-247 201-448 448-448s448 201 448 448c0 90.5-26.9 177.8-77.7 252.2ZM512 384m-52.3 0a52.3 52.3 0 1 1 104.6 0 52.3 52.3 0 1 1-104.6 0ZM512 479c24.6 0 44.8 20.2 44.8 44.8V787c0 24.6-20.2 44.8-44.8 44.8-24.6 0-44.8-20.2-44.8-44.8v-263.2c0-24.7 20.2-44.8 44.8-44.8Z"  horiz-adv-x="1024" />

    
    <glyph glyph-name="chuanshuliebiao1" unicode="&#58900;" d="M384.4 768c-17.7 0-32-14.3-32-32v-626.7L186 275.7c-12.5 12.5-32.8 12.5-45.3 0s-12.5-32.8 0-45.3l221-221c0.4-0.4 0.8-0.7 1.1-1.1 0.2-0.2 0.4-0.3 0.6-0.5 0.2-0.2 0.4-0.4 0.6-0.5 0.2-0.2 0.5-0.4 0.7-0.6 0.2-0.1 0.3-0.3 0.5-0.4 0.3-0.2 0.6-0.4 0.8-0.6 0.1-0.1 0.3-0.2 0.4-0.3l0.9-0.6c0.1-0.1 0.3-0.2 0.4-0.3 0.3-0.2 0.6-0.3 0.9-0.5 0.2-0.1 0.3-0.2 0.5-0.3 0.3-0.1 0.6-0.3 0.8-0.4l0.6-0.3c0.3-0.1 0.5-0.2 0.8-0.3 0.2-0.1 0.5-0.2 0.7-0.3 0.2-0.1 0.5-0.2 0.7-0.3 0.3-0.1 0.5-0.2 0.8-0.3 0.2-0.1 0.4-0.1 0.6-0.2l0.9-0.3c0.2-0.1 0.4-0.1 0.5-0.2 0.3-0.1 0.6-0.2 1-0.3 0.2 0 0.3-0.1 0.5-0.1 0.3-0.1 0.7-0.2 1-0.2 0.2 0 0.4-0.1 0.5-0.1 0.3-0.1 0.7-0.1 1-0.2 0.2 0 0.4-0.1 0.6-0.1 0.3 0 0.6-0.1 0.9-0.1 0.3 0 0.5 0 0.8-0.1 0.2 0 0.5 0 0.7-0.1h3.2c0.3 0 0.5 0 0.7 0.1 0.3 0 0.5 0 0.8 0.1 0.3 0 0.6 0.1 0.9 0.1 0.2 0 0.4 0 0.6 0.1 0.3 0 0.7 0.1 1 0.2 0.2 0 0.4 0.1 0.5 0.1 0.3 0.1 0.7 0.1 1 0.2 0.2 0 0.3 0.1 0.5 0.1 0.3 0.1 0.6 0.2 1 0.3 0.2 0.1 0.4 0.1 0.5 0.2l0.9 0.3c0.2 0.1 0.4 0.1 0.6 0.2 0.3 0.1 0.5 0.2 0.8 0.3 0.2 0.1 0.5 0.2 0.7 0.3 0.2 0.1 0.5 0.2 0.7 0.3 0.3 0.1 0.5 0.2 0.8 0.3l0.6 0.3c0.3 0.1 0.6 0.3 0.8 0.4 0.2 0.1 0.3 0.2 0.5 0.3 0.3 0.2 0.6 0.3 0.9 0.5 0.1 0.1 0.3 0.2 0.4 0.3l0.9 0.6c0.1 0.1 0.3 0.2 0.4 0.3 0.3 0.2 0.6 0.4 0.8 0.6 0.2 0.1 0.3 0.3 0.5 0.4 0.2 0.2 0.5 0.4 0.7 0.6 0.2 0.2 0.4 0.4 0.6 0.5 0.2 0.2 0.4 0.3 0.6 0.5 0.8 0.7 1.5 1.5 2.2 2.2 0.2 0.2 0.3 0.4 0.5 0.6 0.2 0.2 0.4 0.4 0.5 0.6 0.2 0.2 0.4 0.5 0.6 0.7 0.1 0.2 0.3 0.3 0.4 0.5 0.2 0.3 0.4 0.5 0.6 0.8 0.1 0.1 0.2 0.3 0.3 0.4l0.6 0.9c0.1 0.1 0.2 0.3 0.3 0.4 0.2 0.3 0.3 0.6 0.5 0.9 0.1 0.2 0.2 0.3 0.3 0.5 0.1 0.3 0.3 0.6 0.4 0.8l0.3 0.6c0.1 0.3 0.2 0.5 0.3 0.8 0.1 0.2 0.2 0.5 0.3 0.7 0.1 0.2 0.2 0.5 0.3 0.7 0.1 0.3 0.2 0.5 0.3 0.8 0.1 0.2 0.1 0.4 0.2 0.6l0.3 0.9c0.1 0.2 0.1 0.4 0.2 0.5 0.1 0.3 0.2 0.6 0.3 1 0 0.2 0.1 0.3 0.1 0.5 0.1 0.3 0.2 0.7 0.2 1 0 0.2 0.1 0.3 0.1 0.5 0.1 0.3 0.1 0.7 0.2 1 0 0.2 0.1 0.4 0.1 0.6 0 0.3 0.1 0.6 0.1 0.9 0 0.3 0 0.5 0.1 0.8 0 0.3 0 0.5 0.1 0.8V736c0.3 17.7-14 32-31.7 32zM884.1 537.7l-221 221c-0.4 0.4-0.8 0.7-1.2 1.1-0.2 0.2-0.4 0.3-0.6 0.5-0.2 0.2-0.4 0.4-0.6 0.5-0.2 0.2-0.5 0.4-0.7 0.6-0.2 0.1-0.3 0.3-0.5 0.4-0.3 0.2-0.6 0.4-0.8 0.6-0.1 0.1-0.3 0.2-0.4 0.3l-0.9 0.6c-0.1 0.1-0.3 0.2-0.4 0.3-0.3 0.2-0.6 0.3-0.9 0.5-0.2 0.1-0.3 0.2-0.5 0.3-0.3 0.1-0.6 0.3-0.8 0.4l-0.6 0.3c-0.3 0.1-0.5 0.2-0.8 0.3-0.2 0.1-0.5 0.2-0.7 0.3-0.2 0.1-0.5 0.2-0.7 0.3-0.3 0.1-0.5 0.2-0.8 0.3-0.2 0.1-0.4 0.1-0.6 0.2l-0.9 0.3c-0.2 0.1-0.4 0.1-0.5 0.2-0.3 0.1-0.6 0.2-1 0.3-0.2 0-0.3 0.1-0.5 0.1-0.3 0.1-0.7 0.2-1 0.2-0.2 0-0.3 0.1-0.5 0.1-0.3 0.1-0.7 0.1-1 0.2-0.2 0-0.4 0.1-0.6 0.1-0.3 0-0.6 0.1-0.9 0.1-0.3 0-0.5 0-0.8 0.1-0.3 0-0.5 0-0.8 0.1h-3c-0.3 0-0.5 0-0.8-0.1-0.3 0-0.5 0-0.8-0.1-0.3 0-0.6-0.1-0.9-0.1-0.2 0-0.4 0-0.6-0.1-0.3 0-0.7-0.1-1-0.2-0.2 0-0.3-0.1-0.5-0.1-0.3-0.1-0.7-0.1-1-0.2-0.2 0-0.3-0.1-0.5-0.1-0.3-0.1-0.7-0.2-1-0.3-0.2-0.1-0.4-0.1-0.5-0.2l-0.9-0.3c-0.2-0.1-0.4-0.1-0.6-0.2-0.3-0.1-0.5-0.2-0.8-0.3-0.2-0.1-0.5-0.2-0.7-0.3-0.2-0.1-0.5-0.2-0.7-0.3-0.3-0.1-0.5-0.2-0.8-0.3l-0.6-0.3c-0.3-0.1-0.6-0.3-0.8-0.4-0.2-0.1-0.3-0.2-0.5-0.3-0.3-0.2-0.6-0.3-0.9-0.5-0.2-0.1-0.3-0.2-0.4-0.3l-0.9-0.6c-0.1-0.1-0.3-0.2-0.4-0.3-0.3-0.2-0.6-0.4-0.8-0.6-0.2-0.1-0.3-0.3-0.5-0.4-0.2-0.2-0.5-0.4-0.7-0.6-0.2-0.2-0.4-0.4-0.6-0.5-0.2-0.2-0.4-0.3-0.6-0.5-0.8-0.7-1.5-1.5-2.2-2.2-0.2-0.2-0.3-0.4-0.5-0.6-0.2-0.2-0.4-0.4-0.5-0.6-0.2-0.2-0.4-0.5-0.6-0.7-0.1-0.2-0.3-0.3-0.4-0.5-0.2-0.3-0.4-0.6-0.6-0.8-0.1-0.1-0.2-0.3-0.3-0.4l-0.6-0.9c-0.1-0.1-0.2-0.3-0.3-0.4-0.2-0.3-0.3-0.6-0.5-0.9-0.1-0.2-0.2-0.3-0.3-0.5-0.1-0.3-0.3-0.6-0.4-0.8l-0.3-0.6c-0.1-0.3-0.2-0.5-0.3-0.8-0.1-0.2-0.2-0.5-0.3-0.7-0.1-0.2-0.2-0.5-0.3-0.7-0.1-0.3-0.2-0.5-0.3-0.8-0.1-0.2-0.1-0.4-0.2-0.6l-0.3-0.9c-0.1-0.2-0.1-0.4-0.2-0.5-0.1-0.3-0.2-0.6-0.3-1 0-0.2-0.1-0.3-0.1-0.5-0.1-0.3-0.2-0.7-0.2-1 0-0.2-0.1-0.4-0.1-0.5-0.1-0.3-0.1-0.7-0.2-1 0-0.2-0.1-0.4-0.1-0.6 0-0.3-0.1-0.6-0.1-0.9 0-0.3 0-0.5-0.1-0.8 0-0.2 0-0.5-0.1-0.7v-705.5c0-17.7 14.3-32 32-32s32 14.3 32 32V658.8L839 492.4c12.5-12.5 32.8-12.5 45.3 0 12.3 12.5 12.3 32.8-0.2 45.3z"  horiz-adv-x="1024" />

    
    <glyph glyph-name="psw-reset" unicode="&#59358;" d="M923.6 553.3l-45.5-20.7C897.3 485.4 907 435.5 907 384c0-53.3-10.4-105.1-31-153.7-19.9-47-48.4-89.3-84.7-125.6-36.3-36.3-78.5-64.8-125.6-84.7-48.7-20.6-100.4-31-153.7-31s-105.1 10.4-153.7 31c-47 19.9-89.3 48.4-125.6 84.7-36.3 36.3-64.8 78.5-84.7 125.6-20.6 48.7-31 100.4-31 153.7s10.4 105.1 31 153.7c19.9 47 48.4 89.3 84.7 125.6 36.3 36.3 78.5 64.8 125.6 84.7 48.7 20.6 100.4 31 153.7 31s105.1-10.4 153.7-31c21.9-9.2 42.7-20.4 62.3-33.2l-76.4-12.9 8.3-49.3 108.5 18.3 49.3 8.3-8.3 49.3L791.1 837l-49.3-8.3 12-71C684.2 802.8 601.2 829 512 829 266.2 829 67 629.8 67 384s199.2-445 445-445 445 199.2 445 445c0 60-11.9 117.1-33.4 169.3zM487 342h50v-75h-50zM272 144.5h480v320H420l-8.1 71.3c-3.9 34 20.6 64.8 54.6 68.6L542 613c33.9 3.9 64.6-20.5 68.6-54.3l47.6 17.6c-12.5 55-64.6 92.9-121.9 86.4l-75.5-8.6c-61.5-7-105.6-62.5-98.6-123.9l7.5-65.7H272v-320z m50 270h380v-220H322v220z"  horiz-adv-x="1024" />

    
    <glyph glyph-name="liuchenghuifu" unicode="&#58986;" d="M922.3 36c-11.8 0-22.6 6.5-28.2 16.8-104 186.4-250.5 204-431 205.9v-168.8c0-12.9-7.5-24.7-19-30-4.2-2-8.7-2.9-13.4-2.9-8 0-15.6 2.9-21.5 8.3L80.4 359.2c-6.9 6.1-10.9 15-11.1 24.2-0.2 9.2 3.6 18.2 10.3 24.6L408.4 723c6 5.8 13.9 9 22.2 9 4.5 0 8.9-0.9 13-2.8 11.9-5.4 19.5-17.3 19.5-30.3V556c85-5.1 162.7-30.5 231.1-75.5 61.3-40.3 115-96.2 159.7-166.2C926.6 200.6 951.4 88 954 75.5v-0.1c3.2-15.7-5.3-31.5-20.2-37.4h-0.1c-3.7-1.3-7.5-2-11.4-2z m-524 126.9v129c0 18.2 14.6 33 32.4 33 117.5 0 212.8-6.3 295.9-37.2 35.6-13 68.8-31 99-53.7-8.5 16-17.5 31.4-26.8 45.9-90.3 140-214.1 211-368.1 211-8.8 0.1-17 3.6-23.1 9.8-6.1 6.2-9.4 14.5-9.3 23.3V622.6L150 384.9l248.3-222z"  horiz-adv-x="1024" />

    
    <glyph glyph-name="xiugai" unicode="&#58887;" d="M884.329-30.072H142.056c-23.739 0-43.051 19.488-43.051 43.443V692.772c0 23.955 19.313 43.444 43.051 43.444h370.307c17.673 0 32-14.327 32-32 0-17.673-14.326-32-32-32H163.004v-638.289H863.38V398.726c0 17.673 14.327 32 32 32s32-14.327 32-32v-385.355c0-23.955-19.313-43.443-43.051-43.443zM334.451 112.518l37.361 197.519 393.876 466.021c9.105 10.774 22.329 17.291 36.279 17.879 13.929 0.596 27.606-4.773 37.55-14.706l70.177-70.098c18.154-18.133 19.381-47.712 2.79-67.339L516.002 172.688l-181.551-60.17z m97.115 169.071l-14.017-74.106 61.209 20.286 376.416 445.363-50.253 50.197-373.355-441.74z"  horiz-adv-x="1024" />

    
    <glyph glyph-name="tiaoguofenxiang" unicode="&#59255;" d="M564.5 61.7l1 0.8c-17.5 0-31.7 14.2-31.7 31.7V236.5l-1.1-0.1c-27.4-2.4-70.3-7.6-118.7-19-49.1-11.6-94.4-27.2-134.6-46.3-47.4-22.6-90.3-52.4-124.2-86.2-1.2-1.2-2.3-2.4-3.5-3.7l-0.1-0.1c-7.8-8.3-16.7-17.8-28.3-17.8-7.8 0-14.6 2.7-19.3 7.7-3.2 3.4-6.9 9.4-6.4 19.1 0.6 10.6 2 17.2 2.9 21.6l0.1 0.4c0.2 0.9 0.3 1.7 0.5 2.4v0.2c2.1 12.8 11.1 59.4 39.3 122.9 18.1 40.7 40.3 78.5 66.2 112.3C239 392 277 428.2 319.7 457.2c9.6 7.2 96.8 70.4 213.2 90.4l0.8 0.1v127c0 17.5 14.2 31.7 31.7 31.7 7.7 0 15.2-2.8 21-7.9l329.2-289.8c13.1-11.6 14.4-31.6 2.9-44.8-0.9-1-1.8-1.9-2.8-2.8L586.5 70.4c-5.8-5.1-13.3-7.9-21-7.9l1-1-2 0.2z m5.2 239.9h0.3c15.5-2.2 27.2-15.7 27.2-31.4v-105.6L846.7 385 597.2 604.6v-84.5c0-16.3-12.3-29.9-28.5-31.6-116.4-11.8-210.4-81.7-211.3-82.4-0.4-0.3-0.9-0.7-1.4-1-37.3-25.3-70.6-56.9-99-94-22.8-29.9-42.6-63.3-58.6-99.5-2.1-4.6-4.1-9.4-6-14.1l-1.2-2.9 2.6 1.7c18.5 11.6 38.3 22.5 58.9 32.3 44.4 21.1 94.2 38.2 147.8 50.8 90.6 21.2 161.5 22.3 164.5 22.4h4.4l0.3-0.2z"  horiz-adv-x="1024" />

    
    <glyph glyph-name="liucheng" unicode="&#58955;" d="M981.917808 246.53150700000003h-115.024657V403.638356c0 19.638356-15.430137 35.068493-35.068493 35.068493H542.860274V517.260274h106.608219c19.638356 0 35.068493 15.430137 35.068493 35.068493V838.487671c0 19.638356-15.430137 35.068493-35.068493 35.068493H364.712329c-19.638356 0-35.068493-15.430137-35.068493-35.068493v-286.158904c0-19.638356 15.430137-35.068493 35.068493-35.068493h109.413698v-78.553425H192.175342c-19.638356 0-35.068493-15.430137-35.068493-35.068493v-157.106849H42.082192c-19.638356 0-35.068493-15.430137-35.068493-35.068493v-286.158904c0-19.638356 15.430137-35.068493 35.068493-35.068494h286.158904c19.638356 0 35.068493 15.430137 35.068493 35.068494V211.46301400000004c0 19.638356-15.430137 35.068493-35.068493 35.068493h-100.99726v122.038356h568.109589v-122.038356h-100.997261c-19.638356 0-35.068493-15.430137-35.068493-35.068493v-286.158904c0-19.638356 15.430137-35.068493 35.068493-35.068494H981.917808c19.638356 0 35.068493 15.430137 35.068493 35.068494V211.46301400000004c0 19.638356-15.430137 35.068493-35.068493 35.068493zM399.780822 803.419178h216.021918V587.39726H399.780822V803.419178z m-106.608219-843.046575H77.150685V176.39452100000005h216.021918v-216.021918z m653.676712 0H730.827397V176.39452100000005h216.021918v-216.021918z"  horiz-adv-x="1024" />

    
    <glyph glyph-name="xiangqing" unicode="&#59006;" d="M896.174 832.132l-832.162-0.078v-831.693h384.075V64.28l-320.062-0.044-0.035 703.774h704.171v-320.218h64.012V832.132zM192.08 576.129h384.075v63.919H192.08v-63.919z m0-127.768l320.062-0.069V512.21H192.08v-63.849z m0-128.317h192.037v63.891l-192.037 0.028v-63.919z m0 0M705.643 0.381C595.51-1.227 513.32 93.382 513.32 192.592c0 113.439 91.234 192.041 192.323 192.041 118.069 0 192.887-99.598 192.323-192.041-0.633-103.519-81.629-189.647-192.323-192.211z m0 320.238c-72.702 0-128.215-55.33-128.215-128.027 0-72.699 55.514-128.027 128.215-128.027s128.215 55.328 128.215 128.027c0 72.697-55.514 128.027-128.215 128.027zM922.723-63.71L801.836 57.172l36.688 36.685 121.7-121.694"  horiz-adv-x="1024" />

    
    <glyph glyph-name="jiahaozhankai" unicode="&#58929;" d="M815.2-15.7H210.8c-55.4 0-100.7 45.3-100.7 100.7V689.5c0 55.4 45.3 100.7 100.7 100.7h604.5c55.4 0 100.7-45.3 100.7-100.7V85c0-55.3-45.3-100.7-100.8-100.7zM210.8 739.9c-30.2 0-50.4-20.1-50.4-50.4V85c0-30.2 20.1-50.4 50.4-50.4h604.5c30.2 0 50.4 20.1 50.4 50.4V689.5c0 30.2-20.1 50.4-50.4 50.4H210.8z m0 0M714.5 362.1h-403c-15.1 0-25.2 10.1-25.2 25.2s10.1 25.2 25.2 25.2h403c15.1 0 25.2-10.1 25.2-25.2s-10.1-25.2-25.2-25.2z m0 0M513 160.6c-15.1 0-25.2 10.1-25.2 25.2v403c0 15.1 10.1 25.2 25.2 25.2s25.2-10.1 25.2-25.2v-403c0-15.1-10.1-25.2-25.2-25.2z m0 0"  horiz-adv-x="1024" />

    
    <glyph glyph-name="jianhaoshouqi" unicode="&#58930;" d="M815.2-15.7H210.8c-55.4 0-100.7 45.3-100.7 100.7V689.5c0 55.4 45.3 100.7 100.7 100.7h604.5c55.4 0 100.7-45.3 100.7-100.7V85c0-55.3-45.3-100.7-100.8-100.7zM210.8 739.9c-30.2 0-50.4-20.1-50.4-50.4V85c0-30.2 20.1-50.4 50.4-50.4h604.5c30.2 0 50.4 20.1 50.4 50.4V689.5c0 30.2-20.1 50.4-50.4 50.4H210.8z m0 0M714.5 362.1h-403c-15.1 0-25.2 10.1-25.2 25.2s10.1 25.2 25.2 25.2h403c15.1 0 25.2-10.1 25.2-25.2s-10.1-25.2-25.2-25.2z m0 0"  horiz-adv-x="1024" />

    
    <glyph glyph-name="liuchengshuoming" unicode="&#58888;" d="M512 235.7c-10.8 0-14.9 1.2-24.1 5.9l-0.3 0.2-189.2 97.6c-17.3 8.3-28.5 25.9-28.5 45.2 0 19.2 11.2 36.9 28.5 45.2l189.5 97.8c10.8 5.4 18.1 5.9 24.1 5.9s13.3-0.5 24.1-5.9l0.3-0.2 189.5-97.8c17.4-8.8 28.2-26 28.2-45s-10.8-36.2-28.2-45L539 243.1c-9.7-7.4-20-7.4-27-7.4z m-0.3 53.1l0.3-0.1 0.1 0.1 185.6 95.8-185.4 95.7-0.3 0.1-0.3-0.1-185.4-95.7 185.4-95.8z m153.2-333.5H359.1c-48.3 0-87.6 39.3-87.6 87.6v61.2c0 48.3 39.3 87.6 87.6 87.6H665c48.3 0 87.6-39.3 87.6-87.6v-61.2c0-48.3-39.4-87.6-87.7-87.6zM359.1 138.8c-19.1 0-34.7-15.6-34.7-34.7v-61.2c0-19.1 15.6-34.7 34.7-34.7H665c19.1 0 34.7 15.6 34.7 34.7v61.2c0 19.1-15.6 34.7-34.7 34.7H359.1z m0 0M603.7 42.9c-18.4 0-30.6 12.2-30.6 30.6 0 18.4 12.2 30.6 30.6 30.6 18.4 0 30.6-12.2 30.6-30.6 0-18.3-12.2-30.6-30.6-30.6M664.9 577.3H359.1c-48.3 0-87.6 39.3-87.6 87.6v61.2c0 48.3 39.3 87.6 87.6 87.6H665c48.3 0 87.6-39.3 87.6-87.6v-61.2c0-48.3-39.4-87.6-87.7-87.6zM359.1 760.8c-19.1 0-34.7-15.6-34.7-34.7v-61.2c0-19.1 15.6-34.7 34.7-34.7H665c19.1 0 34.7 15.6 34.7 34.7v61.2c0 19.1-15.6 34.7-34.7 34.7H359.1z m0 0M389.6 695.5c0 18.4 12.2 30.6 30.6 30.6 18.4 0 30.6-12.2 30.6-30.6 0-18.4-12.2-30.6-30.6-30.6-18.3 0-30.6 12.3-30.6 30.6M199.1 358.1H90.7c-14.6 0-26.5 11.8-26.5 26.5 0 14.6 11.8 26.5 26.5 26.5h108.5c14.6 0 26.5-11.8 26.5-26.5-0.1-14.7-11.9-26.5-26.6-26.5z m-27.7 310.1H90.7c-14.6 0-26.5 11.8-26.5 26.5 0 14.6 11.8 26.5 26.5 26.5h80.7c14.6 0 26.5-11.8 26.5-26.5-0.1-14.6-11.9-26.5-26.5-26.5z m0 0M90.7 358.1c-14.6 0-26.5 11.8-26.5 26.5V688.7c0 14.6 11.8 26.5 26.5 26.5 14.6 0 26.5-11.8 26.5-26.5v-304.2c-0.1-14.6-11.9-26.4-26.5-26.4z m0 0M170 610.4V777.6l83.6-83.6-83.6-83.6z m0 0M932.7 358.1H824.2c-14.6 0-26.5 11.8-26.5 26.5 0 14.6 11.8 26.5 26.5 26.5h108.5c14.6 0 26.5-11.8 26.5-26.5s-11.9-26.5-26.5-26.5z m0-310.2H852c-14.6 0-26.5 11.8-26.5 26.5 0 14.6 11.8 26.5 26.5 26.5h80.7c14.6 0 26.5-11.8 26.5-26.5 0-14.6-11.9-26.5-26.5-26.5z m0 0M932.7 53.9c-14.6 0-26.5 11.8-26.5 26.5V384.5c0 14.6 11.8 26.5 26.5 26.5 14.6 0 26.5-11.8 26.5-26.5v-304.2c0-14.6-11.9-26.4-26.5-26.4z m0 0M853.3 158.6v-167.2L769.7 75l83.6 83.6z m0 0"  horiz-adv-x="1024" />

    
    <glyph glyph-name="fabu" unicode="&#58977;" d="M945.93 765.241c-7.638 15.276-26.279 21.619-41.684 13.981L92.312 375.973c-15.276-7.638-21.619-26.279-13.981-41.684 1.683-3.365 3.884-6.343 6.473-8.803 3.365-3.237 7.378-5.696 12.169-7.249l273.148-85.828 41.943 52.041-222.919 70.035 611.539 303.957-327.131-395.999a22.868 22.868 0 0 1-2.071-2.848l-37.801-46.991v-194.957c0-17.218 13.852-31.069 31.069-31.069s31.069 13.852 31.069 31.069v175.54l297.097-93.206c3.495-1.036 6.991-1.553 10.485-1.423 15.017-0.388 28.609 10.227 31.457 25.502l113.79 621.507c0.388 2.071 0.517 4.272 0.517 6.343-0.13 4.402-1.036 9.062-3.237 13.333zM779.969 169.107l-240.396 75.472L866.314 640.19l-86.346-471.082z"  horiz-adv-x="1024" />

    
    <glyph glyph-name="xiayi" unicode="&#58934;" d="M876.2 306.3L536.7-33.1c-6.6-6.6-15.5-10.3-24.7-10.3-9.3 0-18.2 3.7-24.7 10.3L147.8 306.3c-13.7 13.7-13.7 35.8 0 49.5 13.7 13.7 35.8 13.7 49.5 0L477 76.1V776.4c0 19.3 15.7 35 35 35s35-15.7 35-35v-700.2l279.7 279.7c6.8 6.8 15.8 10.3 24.7 10.3s17.9-3.4 24.7-10.3c13.7-13.8 13.7-35.9 0.1-49.6z"  horiz-adv-x="1024" />

    
    <glyph glyph-name="shangyi" unicode="&#58935;" d="M876.2 461.7L536.7 801.1c-6.6 6.6-15.5 10.3-24.7 10.3-9.3 0-18.2-3.7-24.7-10.3L147.8 461.7c-13.7-13.7-13.7-35.8 0-49.5 13.7-13.7 35.8-13.7 49.5 0L477 691.9v-700.2c0-19.3 15.7-35 35-35s35 15.7 35 35V691.9l279.7-279.7c6.8-6.8 15.8-10.3 24.7-10.3s17.9 3.4 24.7 10.3c13.7 13.7 13.7 35.8 0.1 49.5z"  horiz-adv-x="1024" />

    
    <glyph glyph-name="shenpibohui" unicode="&#59169;" d="M471.3 18H261c-16.5 0-30 13.5-30 30V720c0 16.5 13.5 30 30 30h502c16.5 0 30-13.5 30-30v-250.4c0-16.6 13.4-30 30-30s30 13.4 30 30V720c0 49.6-40.4 90-90 90H261c-49.6 0-90-40.4-90-90v-672c0-49.6 40.4-90 90-90h210.3c16.6 0 30 13.4 30 30s-13.4 30-30 30zM709.8 659.2H314.2c-16.6 0-30-13.4-30-30s13.4-30 30-30h395.7c16.6 0 30 13.4 30 30s-13.5 30-30.1 30zM739.8 465.7c0 16.6-13.4 30-30 30H314.2c-16.6 0-30-13.4-30-30s13.4-30 30-30h395.7c16.5 0 29.9 13.5 29.9 30zM444.2 332.3h-130c-16.6 0-30-13.4-30-30s13.4-30 30-30h130c16.6 0 30 13.4 30 30s-13.5 30-30 30zM444.2 168.8h-130c-16.6 0-30-13.4-30-30s13.4-30 30-30h130c16.6 0 30 13.4 30 30s-13.5 30-30 30zM785.8 264.5H664.2l66.9 66.9c9.8 9.8 9.8 25.6 0 35.4-9.8 9.8-25.6 9.8-35.4 0L586.2 257.2c-9.8-9.8-9.8-25.6 0-35.4l109.6-109.6c4.9-4.9 11.3-7.3 17.7-7.3 6.4 0 12.8 2.4 17.7 7.3 9.8 9.8 9.8 25.6 0 35.4l-66.9 66.9h121.6c57.2 0 103.7-45 103.7-100.2S843 14 785.8 14H596.3c-13.8 0-25-11.2-25-25s11.2-25 25-25h189.5c84.7 0 153.7 67.4 153.7 150.2s-68.9 150.3-153.7 150.3z"  horiz-adv-x="1024" />

    
    <glyph glyph-name="liucheng-moren" unicode="&#58904;" d="M895.593651 302.355067c-103.900366 0-192.9221-84.145543-192.9221-192.9221 0-103.900366 84.145543-188.04591 188.045909-192.9221h5.001221c103.900366 0 192.9221 84.145543 192.9221 192.9221-0.125031 103.900366-84.145543 192.9221-193.04713 192.9221m0-316.70232c-69.266911 0-123.655189 54.388278-123.655189 123.65519s54.388278 123.655189 123.655189 123.655189 123.655189-54.388278 123.655189-123.655189c0-69.14188-54.388278-123.655189-123.655189-123.65519m-702.671551 316.70232C89.021734 302.355067 0 218.209524 0 109.432967c0-103.900366 84.145543-188.04591 188.04591-192.9221h5.001221c103.900366 0 192.9221 84.145543 192.9221 192.9221-5.001221 103.900366-89.146764 192.9221-193.047131 192.9221m0-316.70232c-69.266911 0-123.655189 54.388278-123.655189 123.65519s54.388278 123.655189 123.655189 123.655189 123.655189-54.388278 123.655189-123.655189c-4.87619-69.14188-59.264469-123.655189-123.655189-123.65519m366.214408 524.503053c108.901587 0 197.923321 84.145543 197.923321 192.9221C757.059829 806.978266 672.914286 896 564.137729 896c-108.901587-5.001221-192.9221-89.021734-192.9221-197.923321-0.125031-103.775336 84.020513-187.920879 187.920879-187.920879m0 311.701099c69.266911 0 123.655189-54.388278 123.655189-123.65519s-54.388278-123.655189-123.655189-123.655189-123.655189 54.388278-123.655189 123.655189c4.87619 69.266911 59.264469 123.655189 123.655189 123.65519M197.923321 346.865934c14.878632 99.024176 74.268132 183.044689 148.411233 237.557998-5.001221 14.878632-14.878632 34.633455-19.754823 54.388278-103.900366-64.26569-173.167277-173.167277-188.045909-296.822466 19.754823 5.001221 34.633455 5.001221 54.388278 5.001221h5.001221m707.547741-0.125031c19.754823 0 39.634676-5.001221 59.3895-9.877411-14.878632 123.655189-79.144322 227.555556-178.168499 291.946276-5.001221-19.754823-14.878632-39.634676-24.756043-54.388279 74.268132-54.513309 123.78022-133.657631 143.535042-227.680586M707.547741-34.102076c-49.512088-24.756044-99.024176-34.633455-158.288645-34.633455-59.389499 0-113.777778 14.878632-163.289865 39.634676-9.877411-14.878632-24.756044-29.632234-39.634677-44.510867 59.389499-34.633455 133.657631-54.388278 207.800733-54.388278 74.268132 0 138.533822 19.754823 197.923321 49.512088-19.754823 14.753602-29.632234 29.507204-44.510867 44.385836"  horiz-adv-x="1088" />

    
    <glyph glyph-name="qiandao" unicode="&#58893;" d="M837.89653333 819.98613333h108.89066667c24.13973333 0 43.70453333-19.6608 43.70453333-43.78986666V602.18666667c0-24.18453333-19.58506667-43.78986667-43.70453333-43.78986667H75.02826667c-24.13973333 0-43.70453333 19.65866667-43.70453334 43.78986667V776.19626667c0 24.1824 19.5968 43.78986667 43.70453334 43.78986666h108.89066666v-65.39733333h-65.46133333c-11.85813333 0-21.73546667-9.664-21.73546667-21.5968v-87.6032c0-11.76106667 9.728-21.59573333 21.73546667-21.59573333h784.90133333c11.85706667 0 21.73546667 9.664 21.73546667 21.59573333V732.992c0 11.76106667-9.728 21.5968-21.73546667 21.5968h-65.4624v65.39733333z m-196.19306666 0H380.112v-65.39733333h261.59146667v65.39733333zM140.32 514.7957333300001h-65.29066667c-24.1088 0-43.7056-19.4368-43.7056-43.40693333v-523.56586667c0-23.7792 19.5648-43.408 43.70453334-43.408h871.75893333c24.11946667 0 43.70453333 19.4368 43.70453333 43.408V471.3888c0 23.78986667-19.5648 43.40693333-43.70453333 43.40693333h-65.29066667v-65.39733333h21.8624c12.0064 0 21.73546667-9.57973333 21.73546667-21.85386667v-435.89013333c0-12.05013333-9.8784-21.84213333-21.73546667-21.84213333H118.4576c-12.00746667 0-21.73546667 9.57866667-21.73546667 21.84213333V427.54453333c0 12.0704 9.87733333 21.8528 21.73546667 21.8528h21.8624v65.39733334zM707.1008 830.94933333c0 18.02133333 14.51946667 32.63466667 32.69866667 32.63466667 18.05333333 0 32.69973333-14.64533333 32.69973333-32.63466667v-152.7232c0-18.0192-14.5184-32.63466667-32.69973333-32.63466666-18.0512 0-32.69866667 14.64746667-32.69866667 32.63466666V830.94933333z m-457.78346667 0c0 18.02133333 14.51946667 32.63466667 32.69866667 32.63466667 18.07466667 0 32.69866667-14.64533333 32.69866667-32.63466667v-152.7232c0-18.0192-14.51733333-32.63466667-32.69866667-32.63466666-18.07466667 0-32.69866667 14.64746667-32.69866667 32.63466666V830.94933333z m404.032-642.8032c-13.4336-42.19413333-30.20906667-80.256-50.34773333-114.12693333h109.33653333v-24.4608H310.43626667v24.4608h264.74133333c19.5008 32.2944 37.0848 72.74346667 52.75306667 121.3216l25.41866666-7.19466667z m-263.76533333 0.49066667c13.41226667-24.63146667 26.208-55.1584 38.36373333-91.60533333l-23.50293333-5.74933334c-9.60106667 30.0608-22.39466667 59.94986667-38.3616 89.6672l23.50186667 7.68746667z m110.78613333 10.06933333c12.4544-31.0176 22.672-63.78026667 30.67733334-98.30933333l-23.4816-5.74933333c-9.28213333 35.46666667-19.6704 67.61066667-31.1872 96.39466666l23.99146666 7.664zM387.6704 242.34666667h246.9664v-23.03466667H387.6704V242.34666667z m-24.94933333 159.7056c-12.4768-24.93973333-26.8672-47.47093333-43.1744-67.61066667l-22.05546667 13.90186667c30.05973333 36.7648 51.94346667 77.68 65.69706667 122.76906666l25.41866666-5.28c-6.38826667-17.90293333-11.3472-31.16586667-14.85866666-39.808h132.37013333v-23.97226666h-75.78666667c9.6-20.78613333 16.4768-38.21226667 20.6272-52.28266667l-23.50293333-8.6208c-6.38613333 20.4576-14.07146667 40.75413333-23.01226667 60.90453333H362.72z m202.38613333 0c-8.64213333-17.584-18.22186667-33.8912-28.7808-48.9184l-21.58613333 14.38933333c22.39573333 30.688 39.00053333 65.21813333 49.8784 103.58933333l24.928-5.28c-3.83146667-12.464-8.47253333-25.73653333-13.87946667-39.808H720.46933333v-23.97226666h-82.47146666c11.49546667-20.14933333 20.608-38.85013333 27.33333333-56.11626667l-23.96906667-9.10933333c-7.68533333 20.1376-17.92533333 41.88266667-30.69866666 65.22666666h-45.55733334zM519.06133333 348.81066667000005c61.07733333-45.0688 130.43413333-80.4064 208.13653334-105.99466667l-12.47466667-22.52373333c-80.256 27.50506667-148.16746667 63.1424-203.81546667 106.95466666-52.11413333-40.93866667-120.0448-76.42666667-203.83573333-106.4864l-12.45333333 23.03466667c82.79146667 28.12266667 152.19093333 63.14133333 208.13653333 105.01546667h16.30613333z"  horiz-adv-x="1024" />

    
    <glyph glyph-name="qingkong" unicode="&#58894;" d="M886.401 500.903h-251.7V815.386c0 22.091-19.899 40-44.447 40H439.148c-24.547 0-44.447-17.909-44.447-40v-314.483h-251.7c-22.315 0-40.404-17.909-40.404-40v-506.471c0-22.091 18.09-40 40.404-40h743.4c22.315 0 40.404 17.909 40.404 40V460.903c0.001 22.092-18.089 40-40.404 40z m-10.72-536.47h-127.98V65c0 17.673-12.088 32-27 32s-27-14.327-27-32v-100.567h-152V104c0 14.912-12.088 27-27 27s-27-12.088-27-27v-139.567h-152V65c0 17.673-12.088 32-27 32s-27-14.327-27-32v-100.567H152.597V207.668h723.084v-243.235z m0 293.235H152.597V450.903H444.479V805.386h137.819v-354.483H875.68v-193.235z"  horiz-adv-x="1024" />

    
    <glyph glyph-name="fangxiang-xiangxia" unicode="&#58901;" d="M998.229333 759.466667L614.4 268.834133 231.458133 759.466667 204.8 738.338133 614.4 213.333333 1024 738.679467 998.229333 759.466667z"  horiz-adv-x="1536" />

    
    <glyph glyph-name="fangxiang-xiangshang" unicode="&#58903;" d="M998.229333 213.333333L614.4 703.965867 231.458133 213.333333 204.8 234.461867 614.4 759.466667l409.6-525.346134-25.770667-20.7872z"  horiz-adv-x="1536" />

    
    <glyph glyph-name="fangxiang-xiangzuo" unicode="&#58905;" d="M654.222222 703.857778L245.361778 384 654.222222 64.881778l-17.607111-22.215111L199.111111 384 636.899556 725.333333 654.222222 703.857778z"  horiz-adv-x="1024" />

    
    <glyph glyph-name="fangxiang-xiangyou" unicode="&#58906;" d="M199.111111 703.857778L607.971556 384 199.111111 64.881778l17.607111-22.215111L654.222222 384 216.433778 725.333333 199.111111 703.857778z"  horiz-adv-x="1024" />

    
    <glyph glyph-name="fangxiangyuan-xiangshang" unicode="&#58907;" d="M512 896a512 512 0 1 1 512-512A512.256 512.256 0 0 1 512 896z m0-981.333333a469.333333 469.333333 0 1 0 469.333333 469.333333 469.546667 469.546667 0 0 0-469.333333-469.333333zM735.872 213.333333L512 488.106667 287.445333 213.333333 256 242.261333 512 554.666667l256-312.96-32.128-28.373334z"  horiz-adv-x="1024" />

    
    <glyph glyph-name="fangxiangyuan-xiangxia" unicode="&#58910;" d="M512 896a512 512 0 1 1 512-512A512.256 512.256 0 0 1 512 896z m0-981.333333a469.333333 469.333333 0 1 0 469.333333 469.333333 469.546667 469.546667 0 0 0-469.333333-469.333333zM735.872 512L512 237.226667 287.445333 512 256 483.072 512 170.666667l256 312.96L735.872 512z"  horiz-adv-x="1024" />

    
    <glyph glyph-name="fangxiangyuan-xiangyou" unicode="&#58911;" d="M512 896a512 512 0 1 1 512-512A512.256 512.256 0 0 1 512 896z m0-981.333333a469.333333 469.333333 0 1 0 469.333333 469.333333 469.546667 469.546667 0 0 0-469.333333-469.333333zM384 607.872L658.773333 384 384 159.445333l28.928-31.445333L725.333333 384 412.373333 640 384 607.872z"  horiz-adv-x="1024" />

    
    <glyph glyph-name="fangxiangyuan-xiangzuo" unicode="&#58912;" d="M512 896a512 512 0 1 1 512-512A512.256 512.256 0 0 1 512 896z m0-981.333333a469.333333 469.333333 0 1 0 469.333333 469.333333 469.546667 469.546667 0 0 0-469.333333-469.333333zM640 607.872L365.226667 384 640 159.445333l-28.928-31.445333L298.666667 384l312.96 256 28.373333-32.128z"  horiz-adv-x="1024" />

    


  </font>
</defs>
</svg>
